<?xml version="1.0" encoding="utf-8"?>
<!-- Generator: Adobe Illustrator 18.0.0, SVG Export Plug-In . SVG Version: 6.00 Build 0)  -->
<!DOCTYPE svg PUBLIC "-//W3C//DTD SVG 1.1//EN" "http://www.w3.org/Graphics/SVG/1.1/DTD/svg11.dtd">
<svg version="1.1" id="Layer_1" xmlns="http://www.w3.org/2000/svg" xmlns:xlink="http://www.w3.org/1999/xlink" x="0px" y="0px"
	 viewBox="0 0 800 400" enable-background="new 0 0 800 400" xml:space="preserve">
<circle fill="#FFFFFF" cx="144.6" cy="299" r="2.7"/>
<circle fill="#FFFFFF" cx="59.7" cy="350.3" r="2.7"/>
<circle fill="#FFFFFF" cx="659.9" cy="95.7" r="2.7"/>
<circle fill="#FFFFFF" cx="739.1" cy="36" r="2.7"/>
<path fill="#FFFFFF" d="M760.1,344.7c-1.6,1.1-2,3.3-0.9,4.9c1.1,1.6,3.3,2,4.9,0.9c1.6-1.1,2-3.3,0.9-4.9
	C763.9,344,761.7,343.6,760.1,344.7z"/>
<path fill="#FFFFFF" d="M641.3,292.4c-1.6,1.1-2,3.3-0.9,4.9c1.1,1.6,3.3,2,4.9,0.9c1.6-1.1,2-3.3,0.9-4.9
	C645.1,291.7,642.9,291.3,641.3,292.4z"/>
<g>
	<path fill="#FFFFFF" d="M-32-46v517h873V-46H-32z M654.5,93.7c1.1-3,4.4-4.5,7.4-3.3c1.1,0.4,2,1.2,2.7,2.1L705,79.3l-10.8-19.2
		c-0.2-0.4-0.3-0.8-0.1-1.2c0.1-0.4,0.4-0.7,0.7-0.9l38.7-20.7c-0.3-1.1-0.2-2.3,0.2-3.4c1.1-3,4.4-4.5,7.4-3.3
		c3,1.1,4.5,4.4,3.3,7.4c-1.1,3-4.4,4.5-7.4,3.3c-0.8-0.3-1.5-0.8-2.1-1.3l-37.4,19.9l11,19.4c0.2,0.4,0.3,0.8,0.1,1.3
		c-0.2,0.4-0.5,0.8-1,0.9l-42.1,13.8c0.1,0.8-0.1,1.6-0.4,2.4c-1.1,3-4.4,4.5-7.4,3.3C654.9,100,653.4,96.6,654.5,93.7z M42.1,31.6
		c-3.9,1.4-8.2-0.7-9.5-4.6c-1.3-3.9,0.7-8.2,4.6-9.5c3.9-1.4,8.2,0.7,9.5,4.6c0.5,1.5,0.5,3,0.1,4.4l49.9,28.4
		c0.5,0.3,0.8,0.7,0.9,1.2c0.1,0.5,0.1,1.1-0.2,1.5L82.6,82.3L135,101c0.9-1.2,2.1-2.1,3.6-2.7c3.9-1.4,8.2,0.7,9.5,4.6
		c1.3,4-0.7,8.3-4.6,9.7c-3.9,1.4-8.2-0.7-9.5-4.6c-0.4-1-0.5-2.1-0.4-3.2L79,85.2c-0.6-0.2-1-0.6-1.2-1.2c-0.2-0.6-0.1-1.2,0.2-1.7
		l15.1-25L44.8,29.9C44,30.6,43.1,31.2,42.1,31.6z M144.5,304.7c-0.8,0-1.6-0.2-2.4-0.6l-28.4,34c-0.3,0.4-0.7,0.6-1.2,0.5
		c-0.5,0-0.9-0.2-1.2-0.6l-14-17.4L65,348c0.3,0.7,0.5,1.6,0.5,2.4c-0.1,3.2-2.7,5.7-5.8,5.6c-3.1-0.1-5.7-2.7-5.6-5.8
		c0.1-3.1,2.7-5.7,5.8-5.6c1.2,0,2.3,0.4,3.2,1.1l33.6-28.3c0.3-0.3,0.7-0.4,1.1-0.4c0.4,0,0.8,0.2,1,0.6l13.8,17.2l27.3-32.6
		c-0.6-0.9-1-2.1-1-3.3c0.1-3.2,2.7-5.7,5.8-5.6c3.2,0.1,5.7,2.7,5.6,5.8C150.2,302.2,147.6,304.8,144.5,304.7z M766.2,353.8
		c-3.4,2.3-8.1,1.4-10.4-2c-0.6-0.9-1-1.9-1.2-2.9l-57.8-4.9c-0.6-0.1-1.1-0.4-1.5-0.9c-0.3-0.5-0.4-1.1-0.3-1.7l8.1-28l-53.6-14.2
		c-0.5,0.9-1.3,1.7-2.2,2.3c-3.4,2.3-8.1,1.4-10.4-2c-2.3-3.4-1.4-8.1,2-10.4s8.1-1.4,10.4,2c0.9,1.3,1.3,2.8,1.3,4.2l55.5,14.7
		c0.5,0.1,1,0.5,1.2,0.9c0.3,0.5,0.3,1,0.2,1.5l-8,27.7l55.4,4.7c0.5-1.4,1.5-2.6,2.8-3.5c3.4-2.3,8.1-1.4,10.4,2
		C770.6,346.8,769.7,351.5,766.2,353.8z"/>
	<path fill="#FFFFFF" d="M142.2,108.9c1.9-0.6,2.8-2.6,2.2-4.5c-0.7-1.9-2.7-2.9-4.5-2.2c-1.8,0.6-2.8,2.6-2.2,4.5
		C138.3,108.5,140.3,109.5,142.2,108.9z"/>
	<path fill="#FFFFFF" d="M38.5,21.2c-1.8,0.6-2.8,2.6-2.2,4.5c0.6,1.8,2.6,2.8,4.5,2.2c1.9-0.6,2.8-2.6,2.2-4.5
		C42.4,21.5,40.3,20.5,38.5,21.2z"/>
</g>
<path fill="#EFEFEF" d="M459.1,20.1c0.4,0.5,0.8,1,1.3,1.4L450.7,53l-16.4-5.6c-0.3-0.1-0.7-0.1-1,0.1c-0.3,0.2-0.5,0.5-0.5,0.8
	l-4.4,34.2c-0.7,0.1-1.3,0.3-1.8,0.6c-2.1,1.2-2.8,4-1.5,6.1c1.3,2.1,4.1,2.7,6.2,1.4c2.1-1.2,2.8-4,1.5-6.1c-0.5-0.8-1.2-1.4-2-1.7
	l4.2-32.8l16.2,5.5c0.3,0.1,0.6,0,0.9-0.1c0.3-0.1,0.5-0.3,0.6-0.7l10.1-32.6c0.9,0.1,1.7-0.1,2.5-0.6c2.1-1.2,2.8-4,1.5-6.1
	c-1.2-2.1-4-2.7-6.1-1.5C458.5,15.2,457.8,18,459.1,20.1z M430.6,85.8c0.6,1,0.3,2.2-0.7,2.9c-1,0.6-2.3,0.3-2.9-0.7
	c-0.6-1-0.3-2.3,0.7-2.9C428.7,84.5,430,84.9,430.6,85.8z M464.7,16.7c0.6,1,0.3,2.3-0.7,2.9c-1,0.6-2.3,0.3-2.9-0.7
	c-0.6-1-0.3-2.3,0.7-2.9C462.9,15.4,464.1,15.7,464.7,16.7z"/>
<path fill="#EFEFEF" d="M175.1,192.6c-0.4,0.5-0.6,1.1-0.7,1.7l-32.9,3l-1.1-17.3c0-0.3-0.2-0.7-0.5-0.9c-0.3-0.2-0.6-0.3-1-0.2
	l-33.3,8.9c-0.3-0.6-0.7-1.1-1.3-1.4c-2-1.5-4.8-1-6.2,1c-1.4,2-1,4.8,1,6.3c2,1.5,4.8,1,6.2-1c0.5-0.8,0.8-1.6,0.8-2.5l31.9-8.6
	l1.1,17.1c0,0.3,0.2,0.6,0.4,0.8c0.2,0.2,0.5,0.3,0.8,0.3l34-3c0.3,0.8,0.8,1.6,1.5,2.1c2,1.5,4.8,1,6.2-1c1.5-2,1-4.7-1-6.2
	C179.4,190.2,176.5,190.6,175.1,192.6z M103.5,191.3c-0.6,1-2,1.1-2.9,0.4c-0.9-0.7-1.2-2-0.4-2.9c0.7-0.9,2-1.1,2.9-0.4
	C103.9,189.1,104.1,190.4,103.5,191.3z M180.4,196.5c-0.6,1-2,1.2-2.9,0.4c-0.9-0.7-1.2-2-0.4-2.9c0.7-0.9,2-1.1,2.9-0.4
	C180.9,194.3,181.1,195.6,180.4,196.5z"/>
<path fill="#EFEFEF" d="M451.1,371.5c-0.7,0.1-1.4,0.4-2.1,0.8L419.8,347l13.7-15c0.3-0.3,0.4-0.7,0.4-1.1c-0.1-0.4-0.3-0.8-0.7-1
	l-34.6-20.8c0.2-0.7,0.3-1.5,0.2-2.2c-0.4-2.8-3-4.9-5.9-4.4c-2.9,0.4-4.8,3.1-4.5,6c0.4,2.8,3,4.9,5.9,4.4c1.1-0.2,2-0.7,2.8-1.4
	l33.2,19.9l-13.5,14.9c-0.3,0.2-0.3,0.6-0.3,1c0,0.4,0.2,0.7,0.5,0.9l30.2,26.2c-0.5,0.9-0.7,1.9-0.5,3c0.4,2.8,3,4.9,5.9,4.4
	c2.8-0.4,4.8-3,4.4-5.9C456.6,373.1,454,371.1,451.1,371.5z M393.9,310c-1.3,0.2-2.6-0.7-2.8-2.1c-0.2-1.4,0.7-2.6,2.1-2.8
	c1.4-0.2,2.6,0.8,2.8,2.1C396.2,308.6,395.2,309.8,393.9,310z M452.2,379.1c-1.3,0.2-2.6-0.7-2.8-2.1c-0.2-1.4,0.7-2.6,2.1-2.8
	c1.4-0.2,2.6,0.8,2.8,2.1C454.4,377.7,453.5,379,452.2,379.1z"/>
</svg>
