<?xml version="1.0" encoding="utf-8"?>
<!-- Generator: Adobe Illustrator 18.0.0, SVG Export Plug-In . SVG Version: 6.00 Build 0)  -->
<!DOCTYPE svg PUBLIC "-//W3C//DTD SVG 1.1//EN" "http://www.w3.org/Graphics/SVG/1.1/DTD/svg11.dtd">
<svg version="1.1" id="Layer_1" xmlns="http://www.w3.org/2000/svg" xmlns:xlink="http://www.w3.org/1999/xlink" x="0px" y="0px"
	 viewBox="0 0 400 400" enable-background="new 0 0 400 400" xml:space="preserve">
	 <clipPath id="svgClip">
	 	<path fill="#717171" d="M308.2,323.6c-8.4,0-15.2,6.7-15.2,15s6.8,15,15.2,15c8.4,0,15.2-6.7,15.2-15S316.6,323.6,308.2,323.6z
	 M308.2,345.2c-3.6,0-6.6-3-6.6-6.6c0-3.7,2.9-6.6,6.6-6.6s6.7,3,6.6,6.6C314.8,342.3,311.9,345.2,308.2,345.2z"/>
<path fill="#717171" d="M325.1,287.2h-35.4c-3.7,0-6.6,3.2-6.6,7.1v63.2c0,3.9,3,7.1,6.6,7.1h35.4c3.7,0,6.6-3.2,6.6-7.1v-63.2
	C331.7,290.4,328.7,287.2,325.1,287.2z M328.6,357.6c0,2.2-1.5,4-3.4,4h-35.4c-1.9,0-3.4-1.8-3.4-4v-63.2c0-2.2,1.5-4,3.4-4h35.4
	c1.9,0,3.4,1.7,3.4,4V357.6z"/>
<path fill="#717171" d="M289.7,110.5c-1.3,0.1-2.2,1.1-2.2,2.3c0.1,1.2,1.1,2.1,2.4,2.1c1.2-0.1,2.2-1.1,2.2-2.3
	C292,111.4,291,110.5,289.7,110.5z"/>
<path fill="#717171" d="M324.1,110.9l2.2-0.1l0.1,2c0.1,1.1,1,1.9,2.2,1.9c1.1,0,2-0.9,2-2l-0.1-2l2.2-0.1c1.2-0.1,2.1-1,2-2
	c-0.1-1.1-1-1.9-2.2-1.9l-2.2,0.1l-0.1-2c-0.1-1.1-1-1.9-2.2-1.9c-1.1,0-2,0.9-2,2l0.1,2l-2.2,0.1c-1.1,0-2,0.9-2,2
	C322,110.1,322.9,110.9,324.1,110.9z"/>
<path fill="#717171" d="M289.4,130.8c4.9-0.2,9.2-3.3,11.8-8.7c5.3,0.8,11,0.7,16.2-0.4c0.7,1.2,1.5,2.3,2.3,3.2
	c2.8,3.1,6.4,4.8,10.1,4.7c8.3-0.2,14.6-9.2,14.3-20.3c-0.3-5.8-2.2-11.2-5.5-14.9c-2.9-3.1-6.5-4.8-10.2-4.7c-4,0.1-7.7,2.3-10.3,6
	c-2.8-0.6-5.6-0.8-8.6-0.8c-0.4-2.3-0.3-4.5,1.5-6.4c1.8-1.9,4.9-2.7,7.4-3.6c5-1.8,5.8-5.1,4.8-9.6c-0.4-1.7-3.5-1.4-3.1,0.4
	c0.6,2.5,1.1,4.9-1.8,6.2c-2.2,1-4.6,1.5-6.7,2.7c-4.5,2.5-5.9,6.2-5.3,10.4c-2.7,0.2-5.3,0.7-7.7,1.3c-2.9-3.6-6.7-5.6-10.7-5.5
	c-8.4,0.2-14.6,9.2-14.2,20.4c0.3,5.8,2.2,11.2,5.5,14.9C282.1,129.2,285.7,130.9,289.4,130.8z M288.1,94.6c2.3,0,4.6,1.1,6.5,3.3
	c0.5,0.5,0.9,1.1,1.3,1.7l0.9,1.4l1.7-0.6c6-1.9,13.9-2.1,20.1-0.6l1.7,0.4l0.8-1.4c1.9-3.3,4.6-5.2,7.4-5.3
	c2.2-0.1,4.5,1.1,6.6,3.1c2.7,3,4.4,7.8,4.6,12.6c0.2,4.3-0.9,8.5-2.8,11.6c-1.9,3.1-4.5,4.8-7.1,4.9c-2.3,0.1-4.6-1.1-6.5-3.2
	c-0.9-1.1-1.8-2.4-2.5-3.9L320,117l-1.9,0.5c-5.5,1.5-12,1.6-17.6,0.4l-2-0.4l-0.7,1.7c-1.8,4.7-5.1,7.6-8.5,7.7
	c-2.3,0-4.6-1.1-6.5-3.3c-2.7-3-4.4-7.8-4.6-12.6C277.9,102.3,282.4,94.8,288.1,94.6z"/>
<path fill="#717171" d="M291.2,109c0.1,1.2,1.1,2.1,2.4,2.1c1.2-0.1,2.2-1.1,2.2-2.3c-0.1-1.2-1.1-2.1-2.4-2.1
	C292.1,106.8,291.2,107.8,291.2,109z"/>
<path fill="#717171" d="M289.7,107.5c1.3-0.1,2.2-1.1,2.2-2.3c-0.1-1.2-1.1-2.1-2.4-2.1s-2.3,1-2.2,2.3
	C287.4,106.6,288.4,107.5,289.7,107.5z"/>
<path fill="#717171" d="M113.8,328.6c-1.2,0-2.3,0.1-3.4,0.4v-10.1c0-0.8-0.6-1.4-1.4-1.4H63.2c-0.8,0-1.4,0.6-1.4,1.4v44.3
	c0,0.8,0.6,1.4,1.4,1.4H109c0.8,0,1.4-0.6,1.4-1.4v-10.1c1.1,0.3,2.2,0.4,3.4,0.4c7.1,0,12.9-5.6,12.9-12.4
	C126.7,334.2,120.9,328.6,113.8,328.6z M113.9,350.6c-1.5,0-2.9-0.3-4.3-0.9c-0.5-0.2-1-0.2-1.4,0.1c-0.5,0.3-0.7,0.7-0.7,1.2v10.6
	H64.7v-41.4h42.7v1.9H65.2c0,0,20.3,8,42.2,0.2v8.6c0,0.5,0.3,0.9,0.7,1.2c0.4,0.3,1,0.3,1.4,0.1c1.4-0.6,2.8-0.9,4.3-0.9
	c5.5,0,10,4.4,10.1,9.7C123.9,346.3,119.4,350.6,113.9,350.6z"/>
<path fill="#717171" d="M307.7,315.6c4.4,0,7.9-3.5,7.9-7.8s-3.5-7.8-7.9-7.8c-4.3,0-7.9,3.5-7.9,7.8
	C299.8,312.1,303.3,315.6,307.7,315.6z"/>
<path fill="#717171" d="M72.7,303.2c-0.5,3.3,2,4.7,2,4.7c-1.3-2.6,1-5.9,1-5.9c3.5-4.6-1.2-8.1-1.2-8.1c1.5,1.4,0.8,4.5-0.4,6.3
	C72.8,302.1,72.7,303.2,72.7,303.2z"/>
<path fill="#717171" d="M113.8,334.8c-3,0-5.7,2-6.3,4.9c0,0.1,0,0.2,0,0.3v2c0,0.1,0,0.2,0,0.3c0.7,2.8,3.3,4.9,6.3,4.9
	c3.5,0,6.4-2.8,6.4-6.2C120.2,337.6,117.3,334.8,113.8,334.8z M113.8,344.2c-1.6,0-3-1-3.4-2.5v-1.6c0.4-1.4,1.8-2.5,3.4-2.5
	c1.9,0,3.5,1.5,3.5,3.3C117.3,342.7,115.7,344.2,113.8,344.2z"/>
<path fill="#717171" d="M95.7,303.2c-0.5,3.3,2,4.7,2,4.7c-1.3-2.6,1-5.9,1-5.9c3.5-4.6-1.2-8.1-1.2-8.1c1.6,1.4,0.8,4.5-0.4,6.3
	C95.8,302.1,95.7,303.2,95.7,303.2z"/>
<path fill="#717171" d="M84.1,302.2c-0.9,5.8,3.5,8.2,3.5,8.2c-2.4-4.6,1.7-10.4,1.7-10.4c6-8-2.2-14.2-2.2-14.2
	c2.8,2.4,1.5,7.9-0.6,11.1C84.4,300.2,84.1,302.2,84.1,302.2z"/>
<path fill="#717171" d="M285.9,111.3c1.2-0.1,2.2-1.1,2.2-2.3c-0.1-1.2-1.1-2.1-2.4-2.1c-1.3,0.1-2.2,1.1-2.2,2.3
	C283.6,110.4,284.6,111.3,285.9,111.3z"/>
<path fill="#717171" d="M176.2,244.3h67.6c2.6,0,4.7-2,4.7-4.5v-47.6c0-2.5-2.1-4.5-4.7-4.5h-67.6c-2.6,0-4.7,2-4.7,4.5v47.6
	C171.5,242.3,173.6,244.3,176.2,244.3z M174.7,192.2c0-0.7,0.7-1.3,1.5-1.3h67.6c0.9,0,1.5,0.6,1.5,1.3v47.6c0,0.7-0.7,1.3-1.5,1.3
	h-67.6c-0.8,0-1.5-0.6-1.5-1.3V192.2z"/>
<path fill="#717171" d="M236.2,237.9h3c2.3,0,4.2-1.3,4.2-2.9v-38c0-1.6-1.9-2.9-4.2-2.9h-3c-2.3,0-4.2,1.3-4.2,2.9v38
	C232,236.6,233.9,237.9,236.2,237.9z M237.8,201c1,0,1.8,0.8,1.8,1.8s-0.8,1.8-1.8,1.8s-1.8-0.8-1.8-1.8S236.8,201,237.8,201z
	 M237.8,206.8c1,0,1.8,0.8,1.8,1.8s-0.8,1.8-1.8,1.8s-1.8-0.8-1.8-1.8S236.8,206.8,237.8,206.8z M237.8,212.5c1,0,1.8,0.8,1.8,1.8
	s-0.8,1.8-1.8,1.8s-1.8-0.8-1.8-1.8S236.8,212.5,237.8,212.5z M237.8,219.3c1.4,0,2.6,1.1,2.7,2.7c0,1.5-1.2,2.7-2.7,2.7
	c-1.4,0-2.6-1.2-2.6-2.7S236.3,219.3,237.8,219.3z M235.2,230.6h4.8v3.9h-4.8V230.6z"/>
<path fill="#717171" d="M181.4,238.3h43.3c2.2,0,4-1.8,4-4v-36.6c0-2.2-1.8-4-4-4h-43.3c-2.2,0-4,1.8-4,4v36.6
	C177.4,236.5,179.2,238.3,181.4,238.3z M179.4,197.8c0-1.1,0.8-1.9,1.9-1.9h43.3c1.1,0,2,0.8,2,1.9v36.6c0,1.1-0.9,1.9-2,1.9h-43.3
	c-1,0-1.9-0.9-1.9-1.9V197.8z"/>
<path fill="#717171" d="M70.6,148.3c6.6,0,12.1-4.7,13.3-11c3.1,1.2,6.3,1.9,9.6,1.9H119c3.3,0,6.6-0.6,9.6-1.9
	c1.2,6.3,6.7,11,13.3,11c7.5,0,13.6-6.1,13.6-13.6h0.1v-41c0-7-5.3-12.8-12.1-13.5C143.1,63.5,131.7,50,117.7,50H95
	c-14,0-25.4,13.5-25.9,30.2C62.3,80.9,57,86.7,57,93.7v41C57,142.2,63.1,148.3,70.6,148.3z M95,53.9h22.7
	c11.8,0,21.5,11.8,21.9,26.5c-5.6,1-10.1,5.5-11,11.2c-3-1.3-6.2-1.9-9.5-1.9h-1.2c-2-0.2-4.3-0.3-6.7-0.3c-1.5,0-3.1,0-4.8,0.1
	c-1.6-0.1-3.3-0.1-4.8-0.1c-2.4,0-4.7,0.1-6.7,0.3h-1.3c-3.3,0-6.5,0.7-9.5,1.9c-0.9-5.7-5.4-10.2-11-11.2
	C73.4,65.7,83.1,53.9,95,53.9z M127,114c-1,1-2.3,1.5-4.2,1.5H90c-1.9,0-3.2-0.5-4.2-1.5c-1.7-1.8-1.6-4.7-1.6-4.7V98.1
	c1.1-2.3,5-3.9,11-4.5h22.3c6,0.6,9.9,2.1,11.1,4.4v11.2v0.1C128.6,109.3,128.7,112.2,127,114z M61,93.8c0-5.3,4.3-9.7,9.7-9.7
	c5.3,0,9.7,4.3,9.7,9.7v3.3l-0.1,0.2v11.8c0,0.6-0.1,4.6,2.6,7.5c1.7,1.9,4,2.8,7,2.8h32.9c2.9-0.1,5.3-1,7-2.8
	c2.7-2.9,2.6-6.9,2.6-7.5V97.3l-0.1-0.3v-3.3c0-5.3,4.3-9.7,9.7-9.7c5.3,0,9.7,4.4,9.7,9.8v41c0,5.3-4.3,9.7-9.7,9.7
	c-5.3,0-9.7-4.3-9.7-9.7v-3.7l-2.9,1.6c-3.1,1.8-6.7,2.7-10.3,2.7H93.6c-3.6,0-7.2-0.9-10.3-2.7l-2.9-1.6v3.7c0,5.3-4.3,9.7-9.7,9.7
	c-5.3,0-9.7-4.3-9.7-9.7V93.8z"/>
<path fill="#717171" d="M222.5,229.3c0.5,0,0.9-0.4,0.9-0.9v-24.8c0-0.5-0.4-0.9-0.9-0.9s-0.9,0.4-0.9,0.9v24.8
	C221.6,228.9,222,229.3,222.5,229.3z"/>
	 </clipPath>
	 
<path fill="#717171" d="M308.2,323.6c-8.4,0-15.2,6.7-15.2,15s6.8,15,15.2,15c8.4,0,15.2-6.7,15.2-15S316.6,323.6,308.2,323.6z
	 M308.2,345.2c-3.6,0-6.6-3-6.6-6.6c0-3.7,2.9-6.6,6.6-6.6s6.7,3,6.6,6.6C314.8,342.3,311.9,345.2,308.2,345.2z"/>
<path fill="#717171" d="M325.1,287.2h-35.4c-3.7,0-6.6,3.2-6.6,7.1v63.2c0,3.9,3,7.1,6.6,7.1h35.4c3.7,0,6.6-3.2,6.6-7.1v-63.2
	C331.7,290.4,328.7,287.2,325.1,287.2z M328.6,357.6c0,2.2-1.5,4-3.4,4h-35.4c-1.9,0-3.4-1.8-3.4-4v-63.2c0-2.2,1.5-4,3.4-4h35.4
	c1.9,0,3.4,1.7,3.4,4V357.6z"/>
<path fill="#717171" d="M289.7,110.5c-1.3,0.1-2.2,1.1-2.2,2.3c0.1,1.2,1.1,2.1,2.4,2.1c1.2-0.1,2.2-1.1,2.2-2.3
	C292,111.4,291,110.5,289.7,110.5z"/>
<path fill="#717171" d="M324.1,110.9l2.2-0.1l0.1,2c0.1,1.1,1,1.9,2.2,1.9c1.1,0,2-0.9,2-2l-0.1-2l2.2-0.1c1.2-0.1,2.1-1,2-2
	c-0.1-1.1-1-1.9-2.2-1.9l-2.2,0.1l-0.1-2c-0.1-1.1-1-1.9-2.2-1.9c-1.1,0-2,0.9-2,2l0.1,2l-2.2,0.1c-1.1,0-2,0.9-2,2
	C322,110.1,322.9,110.9,324.1,110.9z"/>
<path fill="#717171" d="M289.4,130.8c4.9-0.2,9.2-3.3,11.8-8.7c5.3,0.8,11,0.7,16.2-0.4c0.7,1.2,1.5,2.3,2.3,3.2
	c2.8,3.1,6.4,4.8,10.1,4.7c8.3-0.2,14.6-9.2,14.3-20.3c-0.3-5.8-2.2-11.2-5.5-14.9c-2.9-3.1-6.5-4.8-10.2-4.7c-4,0.1-7.7,2.3-10.3,6
	c-2.8-0.6-5.6-0.8-8.6-0.8c-0.4-2.3-0.3-4.5,1.5-6.4c1.8-1.9,4.9-2.7,7.4-3.6c5-1.8,5.8-5.1,4.8-9.6c-0.4-1.7-3.5-1.4-3.1,0.4
	c0.6,2.5,1.1,4.9-1.8,6.2c-2.2,1-4.6,1.5-6.7,2.7c-4.5,2.5-5.9,6.2-5.3,10.4c-2.7,0.2-5.3,0.7-7.7,1.3c-2.9-3.6-6.7-5.6-10.7-5.5
	c-8.4,0.2-14.6,9.2-14.2,20.4c0.3,5.8,2.2,11.2,5.5,14.9C282.1,129.2,285.7,130.9,289.4,130.8z M288.1,94.6c2.3,0,4.6,1.1,6.5,3.3
	c0.5,0.5,0.9,1.1,1.3,1.7l0.9,1.4l1.7-0.6c6-1.9,13.9-2.1,20.1-0.6l1.7,0.4l0.8-1.4c1.9-3.3,4.6-5.2,7.4-5.3
	c2.2-0.1,4.5,1.1,6.6,3.1c2.7,3,4.4,7.8,4.6,12.6c0.2,4.3-0.9,8.5-2.8,11.6c-1.9,3.1-4.5,4.8-7.1,4.9c-2.3,0.1-4.6-1.1-6.5-3.2
	c-0.9-1.1-1.8-2.4-2.5-3.9L320,117l-1.9,0.5c-5.5,1.5-12,1.6-17.6,0.4l-2-0.4l-0.7,1.7c-1.8,4.7-5.1,7.6-8.5,7.7
	c-2.3,0-4.6-1.1-6.5-3.3c-2.7-3-4.4-7.8-4.6-12.6C277.9,102.3,282.4,94.8,288.1,94.6z"/>
<path fill="#717171" d="M291.2,109c0.1,1.2,1.1,2.1,2.4,2.1c1.2-0.1,2.2-1.1,2.2-2.3c-0.1-1.2-1.1-2.1-2.4-2.1
	C292.1,106.8,291.2,107.8,291.2,109z"/>
<path fill="#717171" d="M289.7,107.5c1.3-0.1,2.2-1.1,2.2-2.3c-0.1-1.2-1.1-2.1-2.4-2.1s-2.3,1-2.2,2.3
	C287.4,106.6,288.4,107.5,289.7,107.5z"/>
<path fill="#717171" d="M113.8,328.6c-1.2,0-2.3,0.1-3.4,0.4v-10.1c0-0.8-0.6-1.4-1.4-1.4H63.2c-0.8,0-1.4,0.6-1.4,1.4v44.3
	c0,0.8,0.6,1.4,1.4,1.4H109c0.8,0,1.4-0.6,1.4-1.4v-10.1c1.1,0.3,2.2,0.4,3.4,0.4c7.1,0,12.9-5.6,12.9-12.4
	C126.7,334.2,120.9,328.6,113.8,328.6z M113.9,350.6c-1.5,0-2.9-0.3-4.3-0.9c-0.5-0.2-1-0.2-1.4,0.1c-0.5,0.3-0.7,0.7-0.7,1.2v10.6
	H64.7v-41.4h42.7v1.9H65.2c0,0,20.3,8,42.2,0.2v8.6c0,0.5,0.3,0.9,0.7,1.2c0.4,0.3,1,0.3,1.4,0.1c1.4-0.6,2.8-0.9,4.3-0.9
	c5.5,0,10,4.4,10.1,9.7C123.9,346.3,119.4,350.6,113.9,350.6z"/>
<path fill="#717171" d="M307.7,315.6c4.4,0,7.9-3.5,7.9-7.8s-3.5-7.8-7.9-7.8c-4.3,0-7.9,3.5-7.9,7.8
	C299.8,312.1,303.3,315.6,307.7,315.6z"/>
<path fill="#717171" d="M72.7,303.2c-0.5,3.3,2,4.7,2,4.7c-1.3-2.6,1-5.9,1-5.9c3.5-4.6-1.2-8.1-1.2-8.1c1.5,1.4,0.8,4.5-0.4,6.3
	C72.8,302.1,72.7,303.2,72.7,303.2z"/>
<path fill="#717171" d="M113.8,334.8c-3,0-5.7,2-6.3,4.9c0,0.1,0,0.2,0,0.3v2c0,0.1,0,0.2,0,0.3c0.7,2.8,3.3,4.9,6.3,4.9
	c3.5,0,6.4-2.8,6.4-6.2C120.2,337.6,117.3,334.8,113.8,334.8z M113.8,344.2c-1.6,0-3-1-3.4-2.5v-1.6c0.4-1.4,1.8-2.5,3.4-2.5
	c1.9,0,3.5,1.5,3.5,3.3C117.3,342.7,115.7,344.2,113.8,344.2z"/>
<path fill="#717171" d="M95.7,303.2c-0.5,3.3,2,4.7,2,4.7c-1.3-2.6,1-5.9,1-5.9c3.5-4.6-1.2-8.1-1.2-8.1c1.6,1.4,0.8,4.5-0.4,6.3
	C95.8,302.1,95.7,303.2,95.7,303.2z"/>
<path fill="#717171" d="M84.1,302.2c-0.9,5.8,3.5,8.2,3.5,8.2c-2.4-4.6,1.7-10.4,1.7-10.4c6-8-2.2-14.2-2.2-14.2
	c2.8,2.4,1.5,7.9-0.6,11.1C84.4,300.2,84.1,302.2,84.1,302.2z"/>
<path fill="#717171" d="M285.9,111.3c1.2-0.1,2.2-1.1,2.2-2.3c-0.1-1.2-1.1-2.1-2.4-2.1c-1.3,0.1-2.2,1.1-2.2,2.3
	C283.6,110.4,284.6,111.3,285.9,111.3z"/>
<path fill="#717171" d="M176.2,244.3h67.6c2.6,0,4.7-2,4.7-4.5v-47.6c0-2.5-2.1-4.5-4.7-4.5h-67.6c-2.6,0-4.7,2-4.7,4.5v47.6
	C171.5,242.3,173.6,244.3,176.2,244.3z M174.7,192.2c0-0.7,0.7-1.3,1.5-1.3h67.6c0.9,0,1.5,0.6,1.5,1.3v47.6c0,0.7-0.7,1.3-1.5,1.3
	h-67.6c-0.8,0-1.5-0.6-1.5-1.3V192.2z"/>
<path fill="#717171" d="M236.2,237.9h3c2.3,0,4.2-1.3,4.2-2.9v-38c0-1.6-1.9-2.9-4.2-2.9h-3c-2.3,0-4.2,1.3-4.2,2.9v38
	C232,236.6,233.9,237.9,236.2,237.9z M237.8,201c1,0,1.8,0.8,1.8,1.8s-0.8,1.8-1.8,1.8s-1.8-0.8-1.8-1.8S236.8,201,237.8,201z
	 M237.8,206.8c1,0,1.8,0.8,1.8,1.8s-0.8,1.8-1.8,1.8s-1.8-0.8-1.8-1.8S236.8,206.8,237.8,206.8z M237.8,212.5c1,0,1.8,0.8,1.8,1.8
	s-0.8,1.8-1.8,1.8s-1.8-0.8-1.8-1.8S236.8,212.5,237.8,212.5z M237.8,219.3c1.4,0,2.6,1.1,2.7,2.7c0,1.5-1.2,2.7-2.7,2.7
	c-1.4,0-2.6-1.2-2.6-2.7S236.3,219.3,237.8,219.3z M235.2,230.6h4.8v3.9h-4.8V230.6z"/>
<path fill="#717171" d="M181.4,238.3h43.3c2.2,0,4-1.8,4-4v-36.6c0-2.2-1.8-4-4-4h-43.3c-2.2,0-4,1.8-4,4v36.6
	C177.4,236.5,179.2,238.3,181.4,238.3z M179.4,197.8c0-1.1,0.8-1.9,1.9-1.9h43.3c1.1,0,2,0.8,2,1.9v36.6c0,1.1-0.9,1.9-2,1.9h-43.3
	c-1,0-1.9-0.9-1.9-1.9V197.8z"/>
<path fill="#717171" d="M70.6,148.3c6.6,0,12.1-4.7,13.3-11c3.1,1.2,6.3,1.9,9.6,1.9H119c3.3,0,6.6-0.6,9.6-1.9
	c1.2,6.3,6.7,11,13.3,11c7.5,0,13.6-6.1,13.6-13.6h0.1v-41c0-7-5.3-12.8-12.1-13.5C143.1,63.5,131.7,50,117.7,50H95
	c-14,0-25.4,13.5-25.9,30.2C62.3,80.9,57,86.7,57,93.7v41C57,142.2,63.1,148.3,70.6,148.3z M95,53.9h22.7
	c11.8,0,21.5,11.8,21.9,26.5c-5.6,1-10.1,5.5-11,11.2c-3-1.3-6.2-1.9-9.5-1.9h-1.2c-2-0.2-4.3-0.3-6.7-0.3c-1.5,0-3.1,0-4.8,0.1
	c-1.6-0.1-3.3-0.1-4.8-0.1c-2.4,0-4.7,0.1-6.7,0.3h-1.3c-3.3,0-6.5,0.7-9.5,1.9c-0.9-5.7-5.4-10.2-11-11.2
	C73.4,65.7,83.1,53.9,95,53.9z M127,114c-1,1-2.3,1.5-4.2,1.5H90c-1.9,0-3.2-0.5-4.2-1.5c-1.7-1.8-1.6-4.7-1.6-4.7V98.1
	c1.1-2.3,5-3.9,11-4.5h22.3c6,0.6,9.9,2.1,11.1,4.4v11.2v0.1C128.6,109.3,128.7,112.2,127,114z M61,93.8c0-5.3,4.3-9.7,9.7-9.7
	c5.3,0,9.7,4.3,9.7,9.7v3.3l-0.1,0.2v11.8c0,0.6-0.1,4.6,2.6,7.5c1.7,1.9,4,2.8,7,2.8h32.9c2.9-0.1,5.3-1,7-2.8
	c2.7-2.9,2.6-6.9,2.6-7.5V97.3l-0.1-0.3v-3.3c0-5.3,4.3-9.7,9.7-9.7c5.3,0,9.7,4.4,9.7,9.8v41c0,5.3-4.3,9.7-9.7,9.7
	c-5.3,0-9.7-4.3-9.7-9.7v-3.7l-2.9,1.6c-3.1,1.8-6.7,2.7-10.3,2.7H93.6c-3.6,0-7.2-0.9-10.3-2.7l-2.9-1.6v3.7c0,5.3-4.3,9.7-9.7,9.7
	c-5.3,0-9.7-4.3-9.7-9.7V93.8z"/>
<path fill="#717171" d="M222.5,229.3c0.5,0,0.9-0.4,0.9-0.9v-24.8c0-0.5-0.4-0.9-0.9-0.9s-0.9,0.4-0.9,0.9v24.8
	C221.6,228.9,222,229.3,222.5,229.3z"/>
</svg>
