<?xml version="1.0" encoding="utf-8"?>
<!-- Generator: Adobe Illustrator 18.0.0, SVG Export Plug-In . SVG Version: 6.00 Build 0)  -->
<!DOCTYPE svg PUBLIC "-//W3C//DTD SVG 1.1//EN" "http://www.w3.org/Graphics/SVG/1.1/DTD/svg11.dtd">
<svg version="1.1" id="Layer_1" xmlns="http://www.w3.org/2000/svg" xmlns:xlink="http://www.w3.org/1999/xlink" x="0px" y="0px"
	 viewBox="0 0 400 400" enable-background="new 0 0 400 400" xml:space="preserve">
<g>
	<path fill="#FFFFFF" d="M236.8,214.1c1,0,1.8-0.8,1.8-1.8c0-1-0.8-1.8-1.8-1.8c-1,0-1.8,0.8-1.8,1.8
		C235,213.3,235.8,214.1,236.8,214.1z"/>
	<path fill="#FFFFFF" d="M242.8,188.9h-67.6c-0.8,0-1.5,0.6-1.5,1.3v47.6c0,0.7,0.7,1.3,1.5,1.3h67.6c0.8,0,1.5-0.6,1.5-1.3v-47.6
		C244.3,189.5,243.7,188.9,242.8,188.9z M227.7,232.3c0,2.2-1.8,4-4,4h-43.3c-2.2,0-4-1.8-4-4v-36.6c0-2.2,1.8-4,4-4h43.3
		c2.2,0,4,1.8,4,4V232.3z M242.4,233c0,1.6-1.9,2.9-4.2,2.9h-3c-2.3,0-4.2-1.3-4.2-2.9v-38c0-1.6,1.9-2.9,4.2-2.9h3
		c2.3,0,4.2,1.3,4.2,2.9V233z"/>
	<path fill="#FFFFFF" d="M236.8,202.6c1,0,1.8-0.8,1.8-1.8c0-1-0.8-1.8-1.8-1.8c-1,0-1.8,0.8-1.8,1.8
		C235,201.8,235.8,202.6,236.8,202.6z"/>
	<path fill="#FFFFFF" d="M236.8,217.3c-1.5,0-2.6,1.2-2.6,2.7c0,1.5,1.2,2.7,2.6,2.7c1.5,0,2.7-1.2,2.7-2.7
		C239.4,218.4,238.2,217.3,236.8,217.3z"/>
	<rect x="234.2" y="228.6" fill="#FFFFFF" width="4.8" height="3.9"/>
	<path fill="#FFFFFF" d="M236.8,208.4c1,0,1.8-0.8,1.8-1.8c0-1-0.8-1.8-1.8-1.8c-1,0-1.8,0.8-1.8,1.8
		C235,207.6,235.8,208.4,236.8,208.4z"/>
	<path fill="#FFFFFF" d="M112.8,329.3c-1.5,0-2.9,0.3-4.3,0.9c-0.4,0.2-1,0.2-1.4-0.1c-0.4-0.3-0.7-0.7-0.7-1.2v-8.6
		c-21.9,7.8-42.2-0.2-42.2-0.2h42.2v-1.9H63.7v41.4h42.8V349c0-0.5,0.2-0.9,0.7-1.2c0.4-0.3,0.9-0.3,1.4-0.1
		c1.4,0.6,2.8,0.9,4.3,0.9c5.5,0,10-4.3,10-9.6C122.8,333.7,118.3,329.3,112.8,329.3z M112.8,345.2c-3,0-5.6-2.1-6.3-4.9
		c0-0.1,0-0.2,0-0.3v-2c0-0.1,0-0.2,0-0.3c0.6-2.9,3.3-4.9,6.3-4.9c3.5,0,6.4,2.8,6.4,6.2C119.2,342.4,116.3,345.2,112.8,345.2z"/>
	<path fill="#FFFFFF" d="M112.8,335.6c-1.6,0-3,1.1-3.4,2.5v1.6c0.4,1.5,1.8,2.5,3.4,2.5c1.9,0,3.5-1.5,3.5-3.3
		C116.3,337.1,114.7,335.6,112.8,335.6z"/>
	<path fill="#FFFFFF" d="M141,82c-5.4,0-9.7,4.4-9.7,9.7V95c0,0,0,0,0,0l0.1,0.3v11.8c0,0.6,0.1,4.6-2.6,7.5c-1.7,1.8-4.1,2.7-7,2.8
		h0H88.9c-3,0-5.3-0.9-7-2.8c-2.7-2.9-2.6-6.9-2.6-7.5V95.3l0.1-0.2v-3.3c0-5.4-4.4-9.7-9.7-9.7c-5.4,0-9.7,4.4-9.7,9.7v41
		c0,5.4,4.4,9.7,9.7,9.7c5.4,0,9.7-4.4,9.7-9.7v-3.7l2.9,1.6c3.1,1.8,6.7,2.7,10.3,2.7h25.5c3.6,0,7.2-0.9,10.3-2.7l2.9-1.6v3.7
		c0,5.4,4.4,9.7,9.7,9.7c5.4,0,9.7-4.4,9.7-9.7v-41C150.7,86.4,146.3,82,141,82z"/>
	<path fill="#FFFFFF" d="M83.1,89.6c3-1.2,6.2-1.9,9.5-1.9h1.3c2-0.2,4.3-0.3,6.7-0.3c1.5,0,3.2,0,4.8,0.1c1.7-0.1,3.3-0.1,4.8-0.1
		c2.4,0,4.7,0.1,6.7,0.3h1.2c3.3,0,6.5,0.6,9.5,1.9c0.9-5.7,5.4-10.2,11-11.2c-0.4-14.7-10.1-26.5-21.9-26.5H94
		c-11.9,0-21.6,11.8-21.9,26.5C77.7,79.4,82.2,83.9,83.1,89.6z"/>
	<path fill="#FFFFFF" d="M223.6,193.9h-43.3c-1.1,0-1.9,0.8-1.9,1.9v36.6c0,1,0.9,1.9,1.9,1.9h43.3c1.1,0,2-0.8,2-1.9v-36.6
		C225.6,194.7,224.7,193.9,223.6,193.9z M222.4,226.4c0,0.5-0.4,0.9-0.9,0.9c-0.5,0-0.9-0.4-0.9-0.9v-24.8c0-0.5,0.4-0.9,0.9-0.9
		c0.5,0,0.9,0.4,0.9,0.9V226.4z"/>
	<path fill="#FFFFFF" d="M116.5,91.6H94.2c-6,0.6-9.9,2.2-11,4.5l0,11.2c0,0-0.1,2.9,1.6,4.7c1,1,2.3,1.5,4.2,1.5h32.8
		c1.9,0,3.2-0.5,4.2-1.5c1.7-1.8,1.6-4.7,1.6-4.7l0-0.1V96C126.4,93.7,122.5,92.2,116.5,91.6z"/>
	<path fill="#FFFFFF" d="M-11.7-9.8V405h419V-9.8H-11.7z M112.8,351.5c-1.2,0-2.3-0.1-3.4-0.4v10.1c0,0.8-0.6,1.4-1.4,1.4H62.2
		c-0.8,0-1.4-0.6-1.4-1.4v-44.3c0-0.8,0.6-1.4,1.4-1.4H108c0.8,0,1.4,0.6,1.4,1.4v10.1c1.1-0.3,2.2-0.4,3.4-0.4
		c7.1,0,12.9,5.6,12.9,12.5C125.7,345.9,119.9,351.5,112.8,351.5z M73.5,291.9c0,0,4.7,3.5,1.2,8.1c0,0-2.3,3.3-1,5.9
		c0,0-2.5-1.4-2-4.7c0,0,0.1-1.1,1.4-3C74.3,296.4,75,293.3,73.5,291.9z M86.1,283.8c0,0,8.2,6.2,2.2,14.2c0,0-4.1,5.8-1.7,10.4
		c0,0-4.4-2.4-3.5-8.2c0,0,0.3-2,2.4-5.3C87.6,291.7,88.9,286.2,86.1,283.8z M96.5,291.9c0,0,4.7,3.5,1.2,8.1c0,0-2.3,3.3-1,5.9
		c0,0-2.5-1.4-2-4.7c0,0,0.1-1.1,1.4-3C97.3,296.4,98.1,293.3,96.5,291.9z M154.5,132.7c0,7.5-6.1,13.6-13.6,13.6
		c-6.6,0-12.1-4.7-13.3-11c-3,1.3-6.3,1.9-9.6,1.9H92.5c-3.3,0-6.5-0.7-9.6-1.9c-1.2,6.3-6.7,11-13.3,11c-7.5,0-13.6-6.1-13.6-13.6
		v-41c0-7,5.3-12.8,12.1-13.5C68.6,61.5,80,48,94,48h22.7c14,0,25.4,13.5,25.8,30.2c6.8,0.7,12.1,6.5,12.1,13.5V132.7z M247.5,237.8
		c0,2.5-2.1,4.5-4.7,4.5h-67.6c-2.6,0-4.7-2-4.7-4.5v-47.6c0-2.5,2.1-4.5,4.7-4.5h67.6c2.6,0,4.7,2,4.7,4.5V237.8z M330.7,355.5
		c0,3.9-2.9,7.1-6.6,7.1h-35.4c-3.6,0-6.6-3.2-6.6-7.1v-63.2c0-3.9,2.9-7.1,6.6-7.1h35.4c3.6,0,6.6,3.2,6.6,7.1V355.5z M328.8,127.6
		c-3.7,0.1-7.3-1.6-10.1-4.7c-0.8-0.9-1.6-2-2.3-3.2c-5.2,1.1-10.9,1.2-16.2,0.4c-2.6,5.4-6.9,8.5-11.8,8.7
		c-3.7,0.1-7.3-1.6-10.2-4.7c0,0,0,0,0,0c-3.3-3.7-5.2-9.1-5.5-14.9c-0.4-11.2,5.8-20.2,14.2-20.4c4-0.1,7.8,1.9,10.7,5.5
		c2.4-0.6,5-1.1,7.7-1.3c-0.6-4.2,0.8-7.9,5.3-10.4c2.1-1.2,4.5-1.7,6.7-2.7c2.9-1.3,2.4-3.7,1.8-6.2c-0.4-1.8,2.7-2.1,3.1-0.4
		c1,4.5,0.2,7.8-4.8,9.6c-2.5,0.9-5.6,1.7-7.4,3.6c-1.8,1.9-1.9,4.1-1.5,6.4c3,0,5.8,0.2,8.6,0.8c2.6-3.7,6.3-5.9,10.3-6
		c3.7-0.1,7.3,1.6,10.2,4.7c3.3,3.7,5.2,9.1,5.5,14.9C343.4,118.4,337.1,127.4,328.8,127.6z"/>
	<path fill="#FFFFFF" d="M324.2,288.4h-35.4c-1.9,0-3.4,1.8-3.4,4v63.2c0,2.2,1.5,4,3.4,4h35.4c1.9,0,3.4-1.8,3.4-4v-63.2
		C327.6,290.1,326.1,288.4,324.2,288.4z M306.7,298c4.4,0,7.9,3.5,7.9,7.8c0,4.3-3.5,7.8-7.9,7.8c-4.4,0-7.9-3.5-7.9-7.8
		C298.8,301.5,302.4,298,306.7,298z M307.2,351.6c-8.4,0-15.2-6.7-15.2-15c0-8.3,6.8-15,15.2-15c8.4,0,15.2,6.7,15.2,15
		C322.4,344.9,315.6,351.6,307.2,351.6z"/>
	<path fill="#FFFFFF" d="M327.5,91.5c-2.8,0.1-5.5,2-7.4,5.3l-0.8,1.4l-1.7-0.4c-6.2-1.5-14.1-1.3-20.1,0.6l-1.7,0.6l-0.9-1.4
		c-0.4-0.6-0.8-1.2-1.3-1.7c-1.9-2.2-4.2-3.3-6.5-3.3c-5.7,0.2-10.2,7.7-9.9,16.4c0.2,4.8,1.9,9.6,4.6,12.6c1.9,2.2,4.2,3.3,6.5,3.3
		c3.4-0.1,6.7-3,8.5-7.7l0.7-1.7l2,0.4c5.6,1.2,12.1,1.1,17.6-0.4l1.9-0.5l0.8,1.6c0.7,1.5,1.6,2.8,2.5,3.9c1.9,2.1,4.2,3.3,6.5,3.2
		c2.6-0.1,5.2-1.8,7.1-4.9c1.9-3.1,3-7.3,2.8-11.6c-0.2-4.8-1.9-9.6-4.6-12.6C332,92.6,329.7,91.4,327.5,91.5z M288.5,101.1
		c1.3,0,2.3,0.9,2.4,2.1c0,1.2-0.9,2.2-2.2,2.3c-1.3,0-2.3-0.9-2.4-2.1C286.2,102.1,287.2,101.1,288.5,101.1z M284.9,109.3
		c-1.3,0-2.3-0.9-2.4-2.1c0-1.2,0.9-2.2,2.2-2.3c1.3,0,2.3,0.9,2.4,2.1C287.1,108.2,286.1,109.2,284.9,109.3z M288.9,112.9
		c-1.3,0-2.3-0.9-2.4-2.1c0-1.2,0.9-2.2,2.2-2.3c1.3,0,2.3,0.9,2.4,2.1C291.1,111.8,290.1,112.8,288.9,112.9z M292.6,109.1
		c-1.3,0-2.3-0.9-2.4-2.1c0-1.2,0.9-2.2,2.2-2.3c1.3,0,2.3,0.9,2.4,2.1C294.8,108,293.8,109,292.6,109.1z M331.7,108.6l-2.2,0.1
		l0.1,2c0,1.1-0.9,2-2,2c-1.2,0-2.1-0.8-2.2-1.9l-0.1-2l-2.2,0.1c-1.2,0-2.1-0.8-2.2-1.9c0-1.1,0.9-2,2-2l2.2-0.1l-0.1-2
		c0-1.1,0.9-2,2-2c1.2,0,2.1,0.8,2.2,1.9l0.1,2l2.2-0.1c1.2,0,2.1,0.8,2.2,1.9C333.8,107.6,332.9,108.5,331.7,108.6z"/>
	<path fill="#FFFFFF" d="M307.2,330c-3.7,0-6.6,2.9-6.6,6.6c0,3.6,3,6.6,6.6,6.6c3.7,0,6.6-2.9,6.6-6.6
		C313.9,333,310.9,330,307.2,330z"/>
</g>
</svg>
