<?xml version="1.0" encoding="utf-8"?>
<!-- Generator: Adobe Illustrator 18.0.0, SVG Export Plug-In . SVG Version: 6.00 Build 0)  -->
<!DOCTYPE svg PUBLIC "-//W3C//DTD SVG 1.1//EN" "http://www.w3.org/Graphics/SVG/1.1/DTD/svg11.dtd">
<svg version="1.1" id="Layer_1" xmlns="http://www.w3.org/2000/svg" xmlns:xlink="http://www.w3.org/1999/xlink" x="0px" y="0px"
	 viewBox="0 0 800 400" enable-background="new 0 0 800 400" xml:space="preserve">
<rect x="-1.1" y="1.7" fill="#EAEAEA" width="799.8" height="396.6"/>
<path d="M143.5,101c-0.7-4.1-4.3-7.1-8.5-7.1c-0.5,0-1,0-1.6,0.1c-1.9,0.3-3.5,1.3-4.8,2.7L88.8,78.5l29.5-26.1
	c0.8-0.7,1.1-1.7,1-2.7c-0.1-1-0.8-1.9-1.7-2.3L77.6,28.1c0.2-1,0.2-2,0-3c-0.7-4.1-4.3-7.1-8.5-7.1c-0.5,0-1,0-1.6,0.1
	c-2.3,0.4-4.2,1.7-5.5,3.6c-1.3,1.9-1.8,4.2-1.4,6.4c0.7,4.1,4.3,7.1,8.5,7.1c0.5,0,1,0,1.6-0.1c1.5-0.3,2.8-0.9,3.9-1.8L111,50.9
	L81.4,77c-0.8,0.7-1.1,1.7-1,2.7c0.1,1,0.8,1.9,1.7,2.3l44.3,20.3c0,0.6,0,1.2,0.1,1.8c0.7,4.1,4.3,7.1,8.5,7.1c0.5,0,1,0,1.6-0.1
	C141.2,110.1,144.3,105.6,143.5,101z M69.7,30.2c-2,0.4-3.8-1-4.2-2.9c-0.2-0.9,0-1.9,0.6-2.7c0.5-0.8,1.4-1.3,2.3-1.5
	c0.2,0,0.4-0.1,0.7-0.1c1.7,0,3.2,1.2,3.5,3c0.2,0.9,0,1.9-0.6,2.7S70.7,30,69.7,30.2z M135.7,106.1c-2,0.4-3.8-1-4.2-2.9
	c-0.1-0.4-0.1-0.9,0-1.3c0.1-0.1,0.2-0.3,0.2-0.4c0.1-0.3,0.2-0.5,0.2-0.8c0-0.1,0.1-0.1,0.1-0.2c0.5-0.8,1.4-1.3,2.3-1.5
	c0.2,0,0.4-0.1,0.7-0.1c1.7,0,3.2,1.2,3.5,3C138.9,103.8,137.6,105.7,135.7,106.1z"/>
<path d="M197,294c-1.3-1.9-3.2-3.2-5.5-3.6c-0.5-0.1-1.1-0.2-1.6-0.2c-4.1,0-7.7,2.9-8.4,7c-0.4,2.2,0,4.4,1.1,6.1l-46.2,49.9
	l-18.6-48.3c-0.4-1-1.2-1.7-2.3-1.9c-1-0.2-2.1,0.2-2.8,1l-46,53.4c-0.4-0.1-0.7-0.2-1.1-0.3c-0.5-0.1-1.1-0.2-1.6-0.2
	c-4.1,0-7.7,2.9-8.4,7c-0.4,2.3,0,4.5,1.3,6.5c1.3,1.9,3.2,3.2,5.5,3.6c0.5,0.1,1.1,0.2,1.6,0.2c4.1,0,7.7-2.9,8.4-7
	c0.4-2.1,0-4.3-1.1-6l42.6-49.4l18.5,48.1c0.4,1,1.2,1.7,2.2,1.9c1,0.2,2.1-0.1,2.8-0.9l49.8-53.8c0.3,0.1,0.6,0.2,1,0.2
	c0.5,0.1,1.1,0.2,1.6,0.2c4.1,0,7.7-2.9,8.4-7C198.8,298.2,198.3,295.9,197,294z M67.5,366.2c-0.4,1.9-2.3,3.2-4.2,2.9
	c-0.9-0.2-1.8-0.7-2.3-1.5c-0.5-0.8-0.7-1.8-0.6-2.7c0.3-1.7,1.8-2.9,3.5-2.9c0.2,0,0.5,0,0.7,0.1C66.6,362.4,67.9,364.2,67.5,366.2
	z M193.4,299.5c-0.4,1.9-2.3,3.2-4.2,2.9c-2-0.4-3.2-2.3-2.9-4.2c0.3-1.7,1.8-2.9,3.5-2.9c0.2,0,0.5,0,0.7,0.1
	c0.9,0.2,1.8,0.7,2.3,1.5C193.4,297.6,193.6,298.6,193.4,299.5z"/>
<path display="none" d="M208.6,334.5c3.3-6,2.2-13.5-2.6-18.4c-1-1-2.2-1.9-3.5-2.6c-7.5-4.1-16.9-1.4-21,6.1c-2.2,4-2.4,8.8-0.9,13
	l-42.8,36.6l-22.1-61c-0.5-1.5-1.8-2.7-3.3-3.1c-1.5-0.4-3.2-0.1-4.5,0.9l-49.5,38.5c-0.5-0.3-0.9-0.6-1.4-0.9
	c-7.5-4.1-16.9-1.4-21,6.1c-3.3,6-2.2,13.5,2.6,18.4c1,1,2.2,1.9,3.5,2.6c3.6,2,7.8,2.4,11.7,1.3c4-1.2,7.2-3.8,9.2-7.4
	c2-3.7,2.4-8,1.2-11.9l44.4-34.5l22.2,61.4c0.6,1.5,1.8,2.7,3.4,3.1c1.6,0.4,3.3,0,4.5-1l48.2-41.2c0.2,0.1,0.4,0.2,0.5,0.3
	c3.6,2,7.8,2.4,11.7,1.3C203.3,340.8,206.6,338.1,208.6,334.5z M51.2,362.2c-1.4,0.4-2.9,0.2-4.1-0.5c-0.5-0.3-0.9-0.6-1.2-0.9
	c-1.7-1.7-2.1-4.4-0.9-6.5c1.4-2.6,4.8-3.6,7.4-2.1c0.5,0.3,0.9,0.6,1.2,0.9c1.7,1.7,2.1,4.4,0.9,6.5
	C53.7,360.9,52.6,361.8,51.2,362.2z M196.6,332.3c-1.4,0.4-2.9,0.2-4.1-0.5c-0.5-0.3-0.9-0.6-1.2-0.9c-1.7-1.7-2.1-4.4-0.9-6.5
	c1.4-2.6,4.8-3.6,7.4-2.1c0.5,0.3,0.9,0.6,1.2,0.9c1.7,1.7,2.1,4.4,0.9,6.5C199.1,331,198,331.9,196.6,332.3z"/>
<path display="none" d="M22.6,46.9c3.1,0.8,6.4,0.3,9.1-1.3c0.1-0.1,0.3-0.2,0.4-0.3l38.8,30.8c1,0.8,2.3,1.1,3.6,0.7
	c1.2-0.4,2.2-1.3,2.6-2.5l15.6-48.5l35.6,25.6c-0.8,3.1-0.4,6.4,1.3,9.3c1.7,2.8,4.3,4.7,7.4,5.5c3.1,0.8,6.4,0.3,9.1-1.3
	c1-0.6,1.9-1.3,2.6-2.1c3.6-3.9,4.3-9.8,1.5-14.4c-3.4-5.7-10.8-7.6-16.5-4.2c-0.4,0.2-0.7,0.5-1.1,0.8L92.8,16.3
	c-1-0.7-2.3-0.9-3.5-0.5c-1.2,0.4-2.1,1.3-2.5,2.5L71.3,66.5L36.9,39.2c1.1-3.3,0.8-7-1-10.1c-3.4-5.7-10.8-7.6-16.5-4.2
	c-1,0.6-1.9,1.3-2.6,2.1c-3.6,3.9-4.3,9.8-1.5,14.4C16.8,44.2,19.4,46.2,22.6,46.9z M136.1,56.7c-1-1.6-0.7-3.7,0.5-5.1
	c0.3-0.3,0.6-0.5,0.9-0.8c2-1.2,4.6-0.5,5.8,1.5c1,1.6,0.7,3.7-0.5,5.1c-0.3,0.3-0.6,0.5-0.9,0.8c-1,0.6-2.1,0.8-3.2,0.5
	C137.6,58.3,136.7,57.7,136.1,56.7z M21.9,37.4c-1-1.6-0.7-3.7,0.5-5.1c0.3-0.3,0.6-0.5,0.9-0.8c2-1.2,4.6-0.5,5.8,1.5
	c1,1.6,0.7,3.7-0.5,5.1c-0.3,0.3-0.6,0.5-0.9,0.8c-1,0.6-2.1,0.8-3.2,0.5C23.4,39.1,22.4,38.4,21.9,37.4z"/>
<path display="none" d="M681,362.9c6.8-1,12.1-6.4,13-13.2c0.2-1.4,0.2-2.9,0-4.4c-1.2-8.4-9.1-14.3-17.5-13
	c-4.6,0.7-8.5,3.4-10.8,7.2l-55-11.9l35.2-54.5c0.9-1.3,1-3,0.5-4.5c-0.6-1.5-1.8-2.6-3.4-3l-60.6-16.1c0-0.6-0.1-1.1-0.1-1.7
	c-1.2-8.4-9.1-14.3-17.5-13c-6.8,1-12.1,6.4-13,13.2c-0.2,1.4-0.2,2.9,0,4.4c0.6,4.1,2.8,7.7,6.1,10.1c3.3,2.5,7.4,3.5,11.5,2.9
	c4.2-0.6,7.9-3,10.3-6.3l54.3,14.5l-35.4,54.8c-0.9,1.4-1.1,3.1-0.4,4.6c0.6,1.5,2,2.6,3.6,3l62,13.5c0,0.2,0,0.4,0.1,0.6
	c0.6,4.1,2.8,7.7,6.1,10.1C672.9,362.5,676.9,363.5,681,362.9z M563.7,254.3c-1.2-0.9-1.9-2.1-2.1-3.6c-0.1-0.5-0.1-1,0-1.5
	c0.3-2.4,2.2-4.3,4.6-4.6c3-0.4,5.7,1.6,6.2,4.6c0.1,0.5,0.1,1,0,1.5c-0.3,2.4-2.2,4.3-4.6,4.6C566.3,255.5,564.9,255.2,563.7,254.3
	z M675.5,352c-1.2-0.9-1.9-2.1-2.1-3.6c-0.1-0.5-0.1-1,0-1.5c0.3-2.4,2.2-4.3,4.6-4.6c3-0.4,5.7,1.6,6.2,4.6c0.1,0.5,0.1,1,0,1.5
	c-0.3,2.4-2.2,4.3-4.6,4.6C678.1,353.2,676.7,352.9,675.5,352z"/>
<path display="none" d="M651.9,100.2c-0.5,4.9,2.4,9.6,6.9,11.4c1,0.4,2,0.6,3,0.7c6.1,0.6,11.5-3.9,12.1-10
	c0.3-3.3-0.9-6.5-3.1-8.8l17.9-36.3l31.9,34.1c0.8,0.8,1.9,1.3,3.1,1.1c1.1-0.1,2.1-0.8,2.7-1.8l21.8-39.5c0.4,0.1,0.8,0.2,1.2,0.2
	c6.1,0.6,11.5-3.9,12.1-10c0.5-4.9-2.4-9.6-6.9-11.4c-1-0.4-2-0.6-3-0.7c-3-0.3-5.8,0.6-8.1,2.5c-2.3,1.9-3.7,4.5-4,7.5
	c-0.3,3,0.7,6,2.6,8.2l-19.6,35.4l-32.1-34.3c-0.8-0.9-2-1.3-3.2-1.1c-1.2,0.2-2.2,0.9-2.7,2l-20.2,40.9c-0.2,0-0.3,0-0.5-0.1
	c-3-0.3-5.8,0.6-8.1,2.5C653.7,94.6,652.2,97.2,651.9,100.2z M748.2,37.3c0.8-0.7,1.8-1,2.9-0.9c0.4,0,0.7,0.1,1.1,0.3
	c1.6,0.6,2.6,2.3,2.4,4c-0.2,2.1-2.1,3.7-4.3,3.5c-0.4,0-0.7-0.1-1.1-0.3c-1.6-0.6-2.6-2.3-2.4-4C746.9,38.9,747.4,37.9,748.2,37.3z
	 M660.5,98.3c0.8-0.7,1.8-1,2.9-0.9c0.4,0,0.7,0.1,1.1,0.3c1.6,0.6,2.6,2.3,2.4,4c-0.2,2.1-2.1,3.7-4.3,3.5c-0.4,0-0.7-0.1-1.1-0.3
	c-1.6-0.6-2.6-2.3-2.4-4C659.2,99.9,659.7,98.9,660.5,98.3z"/>
<path display="none" fill="#E8E8E8" d="M360.2,87.6c1,4.2,4.7,7.2,9,7.4c0.9,0,1.8-0.1,2.7-0.3c5.2-1.3,8.4-6.5,7.1-11.7
	c-0.7-2.8-2.6-5.1-5.1-6.4l4.2-35.1l36.1,18.8c0.9,0.5,1.9,0.5,2.8,0c0.9-0.4,1.5-1.3,1.7-2.3l6.5-38.8c0.4,0,0.7-0.1,1.1-0.2
	c5.2-1.3,8.4-6.5,7.1-11.7c-1-4.2-4.7-7.2-9-7.4c-0.9,0-1.8,0.1-2.7,0.3c-2.5,0.6-4.6,2.2-6,4.4c-1.3,2.2-1.7,4.8-1.1,7.3
	c0.6,2.6,2.3,4.7,4.5,6l-5.8,34.8L377,33.9c-0.9-0.5-2-0.5-2.9,0c-0.9,0.5-1.5,1.4-1.7,2.4l-4.7,39.5c-0.1,0-0.3,0.1-0.4,0.1
	c-2.5,0.6-4.6,2.2-6,4.4C360,82.5,359.6,85.1,360.2,87.6z M421.1,7.9c0.5-0.8,1.2-1.3,2.1-1.5c0.3-0.1,0.6-0.1,1-0.1
	c1.5,0.1,2.8,1.1,3.2,2.6c0.4,1.8-0.7,3.7-2.5,4.1c-0.3,0.1-0.6,0.1-1,0.1c-1.5-0.1-2.8-1.1-3.2-2.6C420.5,9.6,420.7,8.7,421.1,7.9z
	 M366.7,83.6c0.5-0.8,1.2-1.3,2.1-1.5c0.3-0.1,0.6-0.1,1-0.1c1.5,0.1,2.8,1.1,3.2,2.6c0.4,1.8-0.7,3.7-2.5,4.1
	c-0.3,0.1-0.6,0.1-1,0.1c-1.5-0.1-2.8-1.1-3.2-2.6C366.1,85.3,366.2,84.3,366.7,83.6z"/>
<path display="none" fill="#E8E8E8" d="M461.7,386.4c4.1,1.2,8.6-0.6,10.8-4.2c0.5-0.8,0.9-1.6,1.1-2.5c1.4-5.1-1.6-10.5-6.7-11.9
	c-2.8-0.8-5.7-0.2-8,1.3l-28.5-20.9l34.2-22.2c0.8-0.5,1.4-1.5,1.4-2.5c0.1-1-0.4-2-1.2-2.6l-30.6-24.8c0.1-0.3,0.3-0.7,0.4-1
	c1.4-5.1-1.6-10.5-6.7-11.9c-4.1-1.2-8.6,0.6-10.8,4.2c-0.5,0.8-0.9,1.6-1.1,2.5c-0.7,2.5-0.4,5.1,0.9,7.4c1.3,2.3,3.3,3.9,5.8,4.6
	c2.6,0.7,5.3,0.3,7.5-1l27.4,22.2l-34.3,22.3c-0.9,0.6-1.4,1.5-1.4,2.5c0,1,0.4,2,1.3,2.6l32,23.6c0,0.1-0.1,0.3-0.1,0.4
	c-0.7,2.5-0.4,5.1,0.9,7.4C457.2,384.1,459.2,385.7,461.7,386.4z M422.4,294.1c-0.4-0.8-0.6-1.7-0.3-2.6c0.1-0.3,0.2-0.6,0.4-0.9
	c0.8-1.3,2.4-1.9,3.8-1.5c1.8,0.5,2.9,2.4,2.4,4.2c-0.1,0.3-0.2,0.6-0.4,0.9c-0.8,1.3-2.4,1.9-3.8,1.5
	C423.5,295.5,422.8,294.9,422.4,294.1z M461.4,378.8c-0.4-0.8-0.6-1.7-0.3-2.6c0.1-0.3,0.2-0.6,0.4-0.9c0.8-1.3,2.4-1.9,3.8-1.5
	c1.8,0.5,2.9,2.4,2.4,4.2c-0.1,0.3-0.2,0.6-0.4,0.9c-0.8,1.3-2.4,1.9-3.8,1.5C462.5,380.1,461.8,379.6,461.4,378.8z"/>
<text transform="matrix(1 0 0 1 238.5824 158.4075)" display="none"><tspan x="0" y="0" display="inline" font-family="'BrooklynSamuelsFive-Fat'" font-size="26.8234">Make Something Awesome</tspan><tspan x="69.1" y="32.2" display="inline" font-family="'BrooklynSamuelsFive-Fat'" font-size="26.8234">On Background</tspan></text>
<text transform="matrix(1 0 0 1 331.813 236)" display="none" fill="#9B9A9A" font-family="'BrooklynSamuelsFive-Fat'" font-size="12">Using animation on CSS</text>
<path d="M772.6,64.3c-0.5-2.2-1.9-4.1-3.9-5.3c-0.5-0.3-1-0.5-1.5-0.7c-3.9-1.4-8.2,0.1-10.3,3.6c-1.2,1.9-1.5,4.1-1.1,6.1
	l-60.6,30.8l-0.8-51.8c0-1.1-0.6-2-1.5-2.6c-0.9-0.5-2-0.5-3,0l-61.6,34.2c-0.3-0.2-0.6-0.5-0.9-0.7c-0.5-0.3-1-0.5-1.5-0.7
	c-3.9-1.4-8.2,0.1-10.3,3.6c-1.2,2-1.5,4.3-1,6.5c0.5,2.2,1.9,4.1,3.9,5.3c0.5,0.3,1,0.5,1.5,0.7c3.9,1.4,8.2-0.1,10.3-3.6
	c1.1-1.9,1.5-4,1.1-6l57-31.7l0.8,51.6c0,1,0.6,2,1.5,2.5c0.9,0.5,2,0.6,2.9,0.1L759,73.1c0.3,0.2,0.5,0.4,0.8,0.6
	c0.5,0.3,1,0.5,1.5,0.7c3.9,1.4,8.2-0.1,10.3-3.6C772.8,68.8,773.2,66.5,772.6,64.3z M626.2,87.2c-1,1.7-3.3,2.3-5,1.2
	c-0.8-0.5-1.4-1.3-1.6-2.2c-0.2-0.9-0.1-1.9,0.4-2.7c0.9-1.5,2.7-2.1,4.3-1.5c0.2,0.1,0.4,0.2,0.6,0.3
	C626.6,83.3,627.2,85.5,626.2,87.2z M767.4,68.2c-1,1.7-3.3,2.2-5,1.2c-1.7-1-2.2-3.3-1.2-5c0.9-1.5,2.7-2.1,4.3-1.5
	c0.2,0.1,0.4,0.2,0.6,0.3c0.8,0.5,1.4,1.3,1.6,2.2C768,66.4,767.9,67.4,767.4,68.2z"/>
<path d="M766.9,354.7c-1.9-3.7-6.1-5.6-10.1-4.4c-0.5,0.1-1,0.3-1.5,0.6c-1.7,0.9-3,2.2-3.9,3.9l-43.4-6.3l21-33.3
	c0.5-0.8,0.6-1.9,0.2-2.8c-0.4-0.9-1.3-1.6-2.2-1.7l-43.9-7.4c-0.1-1-0.4-1.9-0.8-2.8c-1.9-3.7-6.1-5.6-10.1-4.4
	c-0.5,0.1-1,0.3-1.5,0.6c-2.1,1-3.6,2.8-4.3,5c-0.7,2.2-0.6,4.5,0.5,6.6c1.9,3.7,6.1,5.6,10.1,4.4c0.5-0.1,1-0.3,1.5-0.6
	c1.3-0.7,2.4-1.7,3.3-2.9l39.9,6.7l-21.1,33.4c-0.5,0.9-0.6,1.9-0.2,2.9c0.4,0.9,1.3,1.6,2.3,1.7l48.2,7c0.2,0.6,0.4,1.1,0.6,1.7
	c1.9,3.7,6.1,5.6,10.1,4.4c0.5-0.1,1-0.3,1.5-0.6C767.4,364.2,769.1,359,766.9,354.7z M676.3,307.5c-1.8,0.9-4,0.1-4.8-1.6
	c-0.4-0.9-0.5-1.8-0.2-2.8c0.3-0.9,0.9-1.7,1.8-2.1c0.2-0.1,0.4-0.2,0.6-0.2c1.7-0.5,3.4,0.3,4.2,1.8c0.4,0.9,0.5,1.8,0.2,2.8
	C677.8,306.4,677.2,307.1,676.3,307.5z M760.9,361.8c-1.8,0.9-4,0.1-4.8-1.6c-0.2-0.4-0.3-0.8-0.4-1.3c0-0.2,0.1-0.3,0.1-0.5
	c0-0.3,0-0.5,0-0.8c0-0.1,0-0.1,0-0.2c0.3-0.9,0.9-1.7,1.8-2.1c0.2-0.1,0.4-0.2,0.6-0.2c1.7-0.5,3.4,0.3,4.2,1.8
	C763.4,358.8,762.6,360.9,760.9,361.8z"/>
<path d="M294.6,132.4c-1.6-1.6-3.8-2.5-6.1-2.6c-0.6,0-1.1,0-1.6,0.1c-4,0.8-7,4.3-7,8.4c0,2.2,0.8,4.3,2.2,5.8l-36.3,57.5
	l-27.2-44.1c-0.6-0.9-1.5-1.4-2.6-1.4c-1.1,0-2,0.6-2.6,1.5l-35.4,60.9c-0.4-0.1-0.8-0.1-1.1-0.1c-0.6,0-1.1,0-1.6,0.1
	c-4,0.8-7,4.3-7,8.4c0,2.3,0.9,4.5,2.5,6.1c1.6,1.6,3.8,2.5,6.1,2.6c0.6,0,1.1,0,1.6-0.1c4-0.8,7-4.3,7-8.4c0-2.2-0.8-4.2-2.1-5.7
	l32.8-56.4l27.1,43.9c0.5,0.9,1.5,1.4,2.5,1.4c1,0,2-0.5,2.6-1.4l39.1-62c0.3,0,0.7,0.1,1,0.1c0.6,0,1.1,0,1.6-0.1
	c4-0.8,7-4.3,7-8.4C297.1,136.2,296.2,134.1,294.6,132.4z M180.5,227.2c0,2-1.6,3.6-3.6,3.6c-1,0-1.9-0.4-2.5-1.1
	c-0.7-0.7-1-1.6-1-2.6c0-1.7,1.2-3.2,2.9-3.5c0.2,0,0.5-0.1,0.7-0.1C178.9,223.6,180.5,225.2,180.5,227.2z M292.1,138.5
	c0,2-1.7,3.6-3.6,3.6c-2,0-3.6-1.6-3.6-3.6c0-1.7,1.2-3.2,2.9-3.5c0.2,0,0.5-0.1,0.7-0.1c1,0,1.9,0.4,2.5,1.1
	C291.7,136.6,292.1,137.6,292.1,138.5z"/>
<path d="M587.6,173.9c-0.5,2.2-0.1,4.5,1.2,6.5c0.3,0.5,0.6,0.9,1,1.3c2.8,3,7.4,3.5,10.9,1.3c1.9-1.2,3.1-3,3.7-5l68-1l-22.1,46.8
	c-0.5,1-0.4,2.1,0.2,3c0.6,0.9,1.6,1.4,2.6,1.3l70.3-3.5c0.2,0.3,0.3,0.7,0.5,1c0.3,0.5,0.6,0.9,1,1.3c2.8,3,7.4,3.5,10.9,1.3
	c1.9-1.2,3.3-3.2,3.8-5.4c0.5-2.2,0.1-4.5-1.2-6.5c-0.3-0.5-0.6-0.9-1-1.3c-2.8-3-7.4-3.5-10.9-1.3c-1.8,1.2-3.1,2.9-3.6,4.9
	l-65.2,3.3l22.1-46.6c0.4-0.9,0.4-2-0.2-2.9c-0.6-0.9-1.5-1.4-2.6-1.4l-73.3,1.1c-0.1-0.3-0.3-0.6-0.5-0.9c-0.3-0.5-0.6-0.9-1-1.3
	c-2.8-3-7.4-3.5-10.9-1.3C589.4,169.8,588.1,171.7,587.6,173.9z M729.2,217.9c1.6-1.1,3.9-0.6,5,1.1c0.5,0.8,0.7,1.8,0.5,2.7
	c-0.2,0.9-0.8,1.7-1.6,2.3c-1.5,0.9-3.4,0.7-4.6-0.5c-0.2-0.2-0.3-0.4-0.4-0.5C727.1,221.2,727.6,219,729.2,217.9z M594.1,172.7
	c1.6-1.1,3.9-0.6,5,1.1c1.1,1.7,0.6,3.9-1.1,5c-1.5,0.9-3.4,0.7-4.6-0.5c-0.2-0.2-0.3-0.4-0.4-0.5c-0.5-0.8-0.7-1.8-0.5-2.7
	C592.7,174.1,593.3,173.3,594.1,172.7z"/>
<path d="M396.5,343.7c1.4-1.2,2.3-2.8,2.5-4.7c0-0.4,0-0.9,0-1.3c-0.3-3.3-2.9-5.9-6.2-6.2c-1.8-0.2-3.5,0.4-4.8,1.4l-43.3-33.1
	l37.1-18.5c0.8-0.4,1.3-1.1,1.3-2c0.1-0.8-0.3-1.7-1-2.1l-46-32.6c0.1-0.3,0.1-0.6,0.2-0.9c0-0.4,0-0.9,0-1.3
	c-0.3-3.3-2.9-5.9-6.2-6.2c-1.8-0.2-3.6,0.4-5,1.5c-1.4,1.2-2.3,2.8-2.5,4.7c0,0.4,0,0.9,0,1.3c0.3,3.3,2.9,5.9,6.2,6.2
	c1.7,0.2,3.4-0.3,4.7-1.3l42.6,30.2l-37,18.4c-0.7,0.4-1.2,1.1-1.3,1.9c-0.1,0.8,0.3,1.6,0.9,2.1l46.7,35.7
	c-0.1,0.3-0.1,0.5-0.1,0.8c0,0.4,0,0.9,0,1.3c0.3,3.3,2.9,5.9,6.2,6.2C393.3,345.4,395.1,344.8,396.5,343.7z M329.1,245.8
	c-1.6-0.2-2.8-1.6-2.6-3.2c0.1-0.8,0.4-1.5,1-2c0.6-0.5,1.3-0.7,2.1-0.6c1.4,0.1,2.5,1.2,2.6,2.6c0,0.2,0,0.4,0,0.6
	C332.1,244.8,330.7,246,329.1,245.8z M391.8,341.2c-1.6-0.2-2.8-1.6-2.6-3.2c0.2-1.6,1.6-2.8,3.2-2.6c1.4,0.1,2.5,1.2,2.6,2.6
	c0,0.2,0,0.4,0,0.6c-0.1,0.8-0.4,1.5-1,2C393.3,341.1,392.6,341.3,391.8,341.2z"/>
<path d="M252.2,39.3c-0.3,1.8,0.2,3.6,1.3,5.1c0.3,0.4,0.6,0.7,0.9,1c2.4,2.2,6.1,2.4,8.8,0.5c1.4-1.1,2.3-2.6,2.7-4.2l54.3-4.2
	l-15.4,38.5c-0.3,0.8-0.2,1.7,0.3,2.3c0.5,0.7,1.3,1,2.2,0.9l56.1-6.3c0.1,0.3,0.3,0.5,0.5,0.8c0.3,0.4,0.6,0.7,0.9,1
	c2.4,2.2,6.1,2.4,8.8,0.5c1.5-1.1,2.5-2.7,2.7-4.5c0.3-1.8-0.2-3.6-1.3-5.1c-0.3-0.4-0.6-0.7-0.9-1c-2.4-2.2-6.1-2.4-8.8-0.5
	c-1.4,1-2.3,2.5-2.7,4.1l-51.9,5.9L326,35.8c0.3-0.8,0.2-1.6-0.3-2.3c-0.5-0.7-1.3-1-2.1-1L265,37c-0.1-0.2-0.3-0.5-0.4-0.7
	c-0.3-0.4-0.6-0.7-0.9-1c-2.4-2.2-6.1-2.4-8.8-0.5C253.5,35.9,252.5,37.5,252.2,39.3z M367.6,67.4c1.3-0.9,3.1-0.7,4,0.6
	c0.5,0.6,0.6,1.4,0.5,2.1c-0.1,0.8-0.5,1.4-1.1,1.9c-1.1,0.8-2.7,0.7-3.7-0.2c-0.1-0.1-0.3-0.3-0.4-0.4
	C366.1,70.2,366.4,68.3,367.6,67.4z M257.3,38.1c1.3-0.9,3.1-0.7,4,0.6c0.9,1.3,0.7,3.1-0.6,4c-1.1,0.8-2.7,0.7-3.7-0.2
	c-0.1-0.1-0.3-0.3-0.4-0.4c-0.5-0.6-0.6-1.4-0.5-2.1C256.3,39.2,256.7,38.5,257.3,38.1z"/>
<path d="M540,40.1c-2.1-1-4.4-1.1-6.6-0.4c-0.5,0.2-1,0.4-1.5,0.7c-3.6,2.1-5.1,6.4-3.8,10.3c0.7,2.1,2.2,3.7,4,4.7l-14.9,66.4
	l-40.4-32.4c-0.8-0.7-1.9-0.8-2.9-0.5c-1,0.4-1.7,1.2-1.9,2.3l-12.9,69.2c-0.4,0.1-0.7,0.2-1.1,0.3c-0.5,0.2-1,0.4-1.5,0.7
	c-3.6,2.1-5.1,6.4-3.8,10.3c0.8,2.2,2.3,3.9,4.4,4.9c2.1,1,4.4,1.1,6.6,0.4c0.5-0.2,1-0.4,1.5-0.7c3.6-2.1,5.1-6.4,3.8-10.3
	c-0.7-2.1-2.2-3.7-3.9-4.7l12-64.1l40.2,32.3c0.8,0.6,1.9,0.8,2.9,0.5c1-0.3,1.7-1.2,1.9-2.2l16-71.5c0.3-0.1,0.6-0.2,1-0.3
	c0.5-0.2,1-0.4,1.5-0.7c3.6-2.1,5.1-6.4,3.8-10.3C543.6,42.9,542.1,41.1,540,40.1z M464.3,167.6c0.6,1.8-0.3,3.9-2.2,4.6
	c-0.9,0.3-1.9,0.3-2.8-0.2c-0.9-0.4-1.5-1.2-1.8-2.1c-0.6-1.6,0.1-3.4,1.6-4.3c0.2-0.1,0.4-0.2,0.6-0.3
	C461.6,164.8,463.7,165.8,464.3,167.6z M539.7,46.7c0.6,1.8-0.3,3.9-2.2,4.6c-1.9,0.7-3.9-0.3-4.6-2.2c-0.6-1.6,0.1-3.4,1.6-4.3
	c0.2-0.1,0.4-0.2,0.6-0.3c0.9-0.3,1.9-0.3,2.8,0.2C538.7,45,539.3,45.8,539.7,46.7z"/>
<path d="M488.5,322c0,1.8,0.8,3.6,2.1,4.8c0.3,0.3,0.7,0.6,1,0.8c2.8,1.8,6.4,1.4,8.7-1c1.2-1.3,1.9-2.9,1.9-4.6l52.8-13.2
	l-8.7,40.6c-0.2,0.8,0.1,1.7,0.7,2.3c0.6,0.6,1.5,0.8,2.3,0.6l54.2-15.7c0.2,0.2,0.4,0.5,0.6,0.7c0.3,0.3,0.7,0.6,1,0.8
	c2.8,1.8,6.4,1.4,8.7-1c1.3-1.3,2-3.1,1.9-4.9c0-1.8-0.8-3.6-2.1-4.8c-0.3-0.3-0.7-0.6-1-0.8c-2.8-1.8-6.4-1.4-8.7,1
	c-1.2,1.3-1.9,2.9-1.9,4.5l-50.2,14.5l8.6-40.4c0.2-0.8-0.1-1.7-0.7-2.2c-0.6-0.6-1.4-0.8-2.3-0.6l-57,14.3
	c-0.2-0.2-0.3-0.4-0.5-0.6c-0.3-0.3-0.7-0.6-1-0.8c-2.8-1.8-6.4-1.4-8.7,1C489.1,318.4,488.4,320.1,488.5,322z M607,330.3
	c1.1-1.1,2.9-1.2,4.1-0.1c0.6,0.5,0.9,1.3,0.9,2c0,0.8-0.3,1.5-0.8,2.1c-1,1-2.5,1.2-3.7,0.4c-0.2-0.1-0.3-0.2-0.4-0.3
	C605.9,333.2,605.8,331.4,607,330.3z M493.3,319.8c1.1-1.1,2.9-1.2,4.1-0.1c1.1,1.1,1.2,2.9,0.1,4.1c-1,1-2.5,1.2-3.7,0.4
	c-0.2-0.1-0.3-0.2-0.4-0.3c-0.6-0.5-0.9-1.3-0.9-2C492.5,321.1,492.7,320.4,493.3,319.8z"/>
</svg>
