<?xml version="1.0" encoding="utf-8"?>
<!-- Generator: Adobe Illustrator 18.0.0, SVG Export Plug-In . SVG Version: 6.00 Build 0)  -->
<!DOCTYPE svg PUBLIC "-//W3C//DTD SVG 1.1//EN" "http://www.w3.org/Graphics/SVG/1.1/DTD/svg11.dtd">
<svg version="1.1" id="Layer_1" xmlns="http://www.w3.org/2000/svg" xmlns:xlink="http://www.w3.org/1999/xlink" x="0px" y="0px"
	 viewBox="0 0 800 400" enable-background="new 0 0 800 400" xml:space="preserve">
<path display="none" d="M208.6,334.5c3.3-6,2.2-13.5-2.6-18.4c-1-1-2.2-1.9-3.5-2.6c-7.5-4.1-16.9-1.4-21,6.1c-2.2,4-2.4,8.8-0.9,13
	l-42.8,36.6l-22.1-61c-0.5-1.5-1.8-2.7-3.3-3.1s-3.2-0.1-4.5,0.9l-49.5,38.5c-0.5-0.3-0.9-0.6-1.4-0.9c-7.5-4.1-16.9-1.4-21,6.1
	c-3.3,6-2.2,13.5,2.6,18.4c1,1,2.2,1.9,3.5,2.6c3.6,2,7.8,2.4,11.7,1.3c4-1.2,7.2-3.8,9.2-7.4c2-3.7,2.4-8,1.2-11.9l44.4-34.5
	l22.2,61.4c0.6,1.5,1.8,2.7,3.4,3.1c1.6,0.4,3.3,0,4.5-1l48.2-41.2c0.2,0.1,0.4,0.2,0.5,0.3c3.6,2,7.8,2.4,11.7,1.3
	C203.3,340.8,206.6,338.1,208.6,334.5z M51.2,362.2c-1.4,0.4-2.9,0.2-4.1-0.5c-0.5-0.3-0.9-0.6-1.2-0.9c-1.7-1.7-2.1-4.4-0.9-6.5
	c1.4-2.6,4.8-3.6,7.4-2.1c0.5,0.3,0.9,0.6,1.2,0.9c1.7,1.7,2.1,4.4,0.9,6.5C53.7,360.9,52.6,361.8,51.2,362.2z M196.6,332.3
	c-1.4,0.4-2.9,0.2-4.1-0.5c-0.5-0.3-0.9-0.6-1.2-0.9c-1.7-1.7-2.1-4.4-0.9-6.5c1.4-2.6,4.8-3.6,7.4-2.1c0.5,0.3,0.9,0.6,1.2,0.9
	c1.7,1.7,2.1,4.4,0.9,6.5C199.1,331,198,331.9,196.6,332.3z"/>
<path display="none" d="M22.6,46.9c3.1,0.8,6.4,0.3,9.1-1.3c0.1-0.1,0.3-0.2,0.4-0.3l38.8,30.8c1,0.8,2.3,1.1,3.6,0.7
	c1.2-0.4,2.2-1.3,2.6-2.5l15.6-48.5l35.6,25.6c-0.8,3.1-0.4,6.4,1.3,9.3c1.7,2.8,4.3,4.7,7.4,5.5c3.1,0.8,6.4,0.3,9.1-1.3
	c1-0.6,1.9-1.3,2.6-2.1c3.6-3.9,4.3-9.8,1.5-14.4c-3.4-5.7-10.8-7.6-16.5-4.2c-0.4,0.2-0.7,0.5-1.1,0.8L92.8,16.3
	c-1-0.7-2.3-0.9-3.5-0.5s-2.1,1.3-2.5,2.5L71.3,66.5L36.9,39.2c1.1-3.3,0.8-7-1-10.1c-3.4-5.7-10.8-7.6-16.5-4.2
	c-1,0.6-1.9,1.3-2.6,2.1c-3.6,3.9-4.3,9.8-1.5,14.4C16.8,44.2,19.4,46.2,22.6,46.9z M136.1,56.7c-1-1.6-0.7-3.7,0.5-5.1
	c0.3-0.3,0.6-0.5,0.9-0.8c2-1.2,4.6-0.5,5.8,1.5c1,1.6,0.7,3.7-0.5,5.1c-0.3,0.3-0.6,0.5-0.9,0.8c-1,0.6-2.1,0.8-3.2,0.5
	C137.6,58.3,136.7,57.7,136.1,56.7z M21.9,37.4c-1-1.6-0.7-3.7,0.5-5.1c0.3-0.3,0.6-0.5,0.9-0.8c2-1.2,4.6-0.5,5.8,1.5
	c1,1.6,0.7,3.7-0.5,5.1c-0.3,0.3-0.6,0.5-0.9,0.8c-1,0.6-2.1,0.8-3.2,0.5C23.4,39.1,22.4,38.4,21.9,37.4z"/>
<path display="none" d="M681,362.9c6.8-1,12.1-6.4,13-13.2c0.2-1.4,0.2-2.9,0-4.4c-1.2-8.4-9.1-14.3-17.5-13
	c-4.6,0.7-8.5,3.4-10.8,7.2l-55-11.9l35.2-54.5c0.9-1.3,1-3,0.5-4.5c-0.6-1.5-1.8-2.6-3.4-3l-60.6-16.1c0-0.6-0.1-1.1-0.1-1.7
	c-1.2-8.4-9.1-14.3-17.5-13c-6.8,1-12.1,6.4-13,13.2c-0.2,1.4-0.2,2.9,0,4.4c0.6,4.1,2.8,7.7,6.1,10.1c3.3,2.5,7.4,3.5,11.5,2.9
	c4.2-0.6,7.9-3,10.3-6.3l54.3,14.5l-35.4,54.8c-0.9,1.4-1.1,3.1-0.4,4.6c0.6,1.5,2,2.6,3.6,3l62,13.5c0,0.2,0,0.4,0.1,0.6
	c0.6,4.1,2.8,7.7,6.1,10.1C672.9,362.5,676.9,363.5,681,362.9z M563.7,254.3c-1.2-0.9-1.9-2.1-2.1-3.6c-0.1-0.5-0.1-1,0-1.5
	c0.3-2.4,2.2-4.3,4.6-4.6c3-0.4,5.7,1.6,6.2,4.6c0.1,0.5,0.1,1,0,1.5c-0.3,2.4-2.2,4.3-4.6,4.6C566.3,255.5,564.9,255.2,563.7,254.3
	z M675.5,352c-1.2-0.9-1.9-2.1-2.1-3.6c-0.1-0.5-0.1-1,0-1.5c0.3-2.4,2.2-4.3,4.6-4.6c3-0.4,5.7,1.6,6.2,4.6c0.1,0.5,0.1,1,0,1.5
	c-0.3,2.4-2.2,4.3-4.6,4.6C678.1,353.2,676.7,352.9,675.5,352z"/>
<path display="none" d="M651.9,100.2c-0.5,4.9,2.4,9.6,6.9,11.4c1,0.4,2,0.6,3,0.7c6.1,0.6,11.5-3.9,12.1-10
	c0.3-3.3-0.9-6.5-3.1-8.8l17.9-36.3l31.9,34.1c0.8,0.8,1.9,1.3,3.1,1.1c1.1-0.1,2.1-0.8,2.7-1.8l21.8-39.5c0.4,0.1,0.8,0.2,1.2,0.2
	c6.1,0.6,11.5-3.9,12.1-10c0.5-4.9-2.4-9.6-6.9-11.4c-1-0.4-2-0.6-3-0.7c-3-0.3-5.8,0.6-8.1,2.5s-3.7,4.5-4,7.5s0.7,6,2.6,8.2
	l-19.6,35.4l-32.1-34.3c-0.8-0.9-2-1.3-3.2-1.1s-2.2,0.9-2.7,2l-20.2,40.9c-0.2,0-0.3,0-0.5-0.1c-3-0.3-5.8,0.6-8.1,2.5
	C653.7,94.6,652.2,97.2,651.9,100.2z M748.2,37.3c0.8-0.7,1.8-1,2.9-0.9c0.4,0,0.7,0.1,1.1,0.3c1.6,0.6,2.6,2.3,2.4,4
	c-0.2,2.1-2.1,3.7-4.3,3.5c-0.4,0-0.7-0.1-1.1-0.3c-1.6-0.6-2.6-2.3-2.4-4C746.9,38.9,747.4,37.9,748.2,37.3z M660.5,98.3
	c0.8-0.7,1.8-1,2.9-0.9c0.4,0,0.7,0.1,1.1,0.3c1.6,0.6,2.6,2.3,2.4,4c-0.2,2.1-2.1,3.7-4.3,3.5c-0.4,0-0.7-0.1-1.1-0.3
	c-1.6-0.6-2.6-2.3-2.4-4C659.2,99.9,659.7,98.9,660.5,98.3z"/>
<path display="none" fill="#E8E8E8" d="M360.2,87.6c1,4.2,4.7,7.2,9,7.4c0.9,0,1.8-0.1,2.7-0.3c5.2-1.3,8.4-6.5,7.1-11.7
	c-0.7-2.8-2.6-5.1-5.1-6.4l4.2-35.1l36.1,18.8c0.9,0.5,1.9,0.5,2.8,0c0.9-0.4,1.5-1.3,1.7-2.3l6.5-38.8c0.4,0,0.7-0.1,1.1-0.2
	c5.2-1.3,8.4-6.5,7.1-11.7c-1-4.2-4.7-7.2-9-7.4c-0.9,0-1.8,0.1-2.7,0.3c-2.5,0.6-4.6,2.2-6,4.4c-1.3,2.2-1.7,4.8-1.1,7.3
	c0.6,2.6,2.3,4.7,4.5,6l-5.8,34.8L377,33.9c-0.9-0.5-2-0.5-2.9,0s-1.5,1.4-1.7,2.4l-4.7,39.5c-0.1,0-0.3,0.1-0.4,0.1
	c-2.5,0.6-4.6,2.2-6,4.4C360,82.5,359.6,85.1,360.2,87.6z M421.1,7.9c0.5-0.8,1.2-1.3,2.1-1.5c0.3-0.1,0.6-0.1,1-0.1
	c1.5,0.1,2.8,1.1,3.2,2.6c0.4,1.8-0.7,3.7-2.5,4.1c-0.3,0.1-0.6,0.1-1,0.1c-1.5-0.1-2.8-1.1-3.2-2.6C420.5,9.6,420.7,8.7,421.1,7.9z
	 M366.7,83.6c0.5-0.8,1.2-1.3,2.1-1.5c0.3-0.1,0.6-0.1,1-0.1c1.5,0.1,2.8,1.1,3.2,2.6c0.4,1.8-0.7,3.7-2.5,4.1
	c-0.3,0.1-0.6,0.1-1,0.1c-1.5-0.1-2.8-1.1-3.2-2.6C366.1,85.3,366.2,84.3,366.7,83.6z"/>
<path display="none" fill="#E8E8E8" d="M461.7,386.4c4.1,1.2,8.6-0.6,10.8-4.2c0.5-0.8,0.9-1.6,1.1-2.5c1.4-5.1-1.6-10.5-6.7-11.9
	c-2.8-0.8-5.7-0.2-8,1.3l-28.5-20.9l34.2-22.2c0.8-0.5,1.4-1.5,1.4-2.5c0.1-1-0.4-2-1.2-2.6l-30.6-24.8c0.1-0.3,0.3-0.7,0.4-1
	c1.4-5.1-1.6-10.5-6.7-11.9c-4.1-1.2-8.6,0.6-10.8,4.2c-0.5,0.8-0.9,1.6-1.1,2.5c-0.7,2.5-0.4,5.1,0.9,7.4s3.3,3.9,5.8,4.6
	c2.6,0.7,5.3,0.3,7.5-1l27.4,22.2l-34.3,22.3c-0.9,0.6-1.4,1.5-1.4,2.5s0.4,2,1.3,2.6l32,23.6c0,0.1-0.1,0.3-0.1,0.4
	c-0.7,2.5-0.4,5.1,0.9,7.4C457.2,384.1,459.2,385.7,461.7,386.4z M422.4,294.1c-0.4-0.8-0.6-1.7-0.3-2.6c0.1-0.3,0.2-0.6,0.4-0.9
	c0.8-1.3,2.4-1.9,3.8-1.5c1.8,0.5,2.9,2.4,2.4,4.2c-0.1,0.3-0.2,0.6-0.4,0.9c-0.8,1.3-2.4,1.9-3.8,1.5
	C423.5,295.5,422.8,294.9,422.4,294.1z M461.4,378.8c-0.4-0.8-0.6-1.7-0.3-2.6c0.1-0.3,0.2-0.6,0.4-0.9c0.8-1.3,2.4-1.9,3.8-1.5
	c1.8,0.5,2.9,2.4,2.4,4.2c-0.1,0.3-0.2,0.6-0.4,0.9c-0.8,1.3-2.4,1.9-3.8,1.5C462.5,380.1,461.8,379.6,461.4,378.8z"/>
<text transform="matrix(1 0 0 1 331.813 236)" display="none" fill="#9B9A9A" enable-background="new    " font-family="'BrooklynSamuelsFive-Fat'" font-size="12">Using animation on CSS</text>
<g>
	<path fill="#FFFFFF" d="M614.7,291.5c-1.7,0.9-2.6,2.9-1.6,4.9c0.8,1.5,2.4,2.4,4.2,1.9c0.2,0,0.4-0.1,0.6-0.2
		c0.9-0.4,1.5-1.2,1.8-2.1c0-0.1,0-0.1,0-0.2c0-0.3,0-0.5,0-0.8c0-0.2,0.1-0.3,0.1-0.5c-0.1-0.5-0.2-0.9-0.4-1.3
		C618.7,291.5,616.5,290.7,614.7,291.5z"/>
	<path fill="#FFFFFF" d="M175.7,274c-0.2,0-0.5,0-0.7,0c-1.7,0-3.1,1.3-3.3,3c-0.3,2,1.1,3.8,3,4.1c1.8,0.3,3.8-1.1,4.1-3
		c0.1-0.9-0.1-1.9-0.8-2.6C177.6,274.6,176.7,274.1,175.7,274z"/>
	<path fill="#FFFFFF" d="M89.3,36.9c1-0.2,1.7-0.7,2.3-1.5c0.6-0.8,0.8-1.8,0.6-2.7c-0.3-1.8-1.8-3-3.5-3c-0.3,0-0.5,0.1-0.7,0.1
		c-0.9,0.2-1.8,0.7-2.3,1.5c-0.6,0.8-0.8,1.8-0.6,2.7C85.5,35.9,87.3,37.3,89.3,36.9z"/>
	<path fill="#FFFFFF" d="M155.3,112.8c1.9-0.4,3.2-2.3,2.8-4.2c-0.3-1.8-1.8-3-3.5-3c-0.3,0-0.5,0.1-0.7,0.1
		c-0.9,0.2-1.8,0.7-2.3,1.5c0,0.1-0.1,0.1-0.1,0.2c0,0.3-0.1,0.5-0.2,0.8c0,0.1-0.1,0.3-0.2,0.4c-0.1,0.4-0.1,0.9,0,1.3
		C151.5,111.8,153.3,113.2,155.3,112.8z"/>
	<path fill="#FFFFFF" d="M52.1,344.6c-0.2,0-0.5,0-0.7,0c-1.7,0-3.1,1.3-3.3,3c-0.1,1,0,1.9,0.6,2.7c0.4,0.8,1.3,1.4,2.3,1.5
		c2,0.3,3.8-1.1,4.1-3C55.3,346.8,53.9,345,52.1,344.6z"/>
	<path fill="#FFFFFF" d="M622.8,118c-1.9-0.5-3.9,0.8-4.3,2.8c-0.2,0.9,0,1.9,0.5,2.7s1.4,1.3,2.3,1.6c1.7,0.3,3.4-0.6,4.1-2.1
		c0.1-0.3,0.1-0.5,0.2-0.6C626,120.3,624.7,118.4,622.8,118z"/>
	<path fill="#FFFFFF" d="M0,0v399.6h799.8V0H0z M81.6,28.4c1.3-1.9,3.2-3.2,5.5-3.6c0.6-0.1,1.1-0.1,1.6-0.1c4.2,0,7.8,3,8.5,7.1
		c0.2,1,0.2,2,0,3l40,19.3c0.9,0.4,1.6,1.3,1.7,2.3c0.1,1-0.2,2-1,2.7l-29.5,26.1l39.8,18.2c1.3-1.4,2.9-2.4,4.8-2.7
		c0.6-0.1,1.1-0.1,1.6-0.1c4.2,0,7.8,3,8.5,7.1c0.8,4.6-2.3,9.1-6.9,10.1c-0.6,0.1-1.1,0.1-1.6,0.1c-4.2,0-7.8-3-8.5-7.1
		c-0.1-0.6-0.1-1.2-0.1-1.8l-44.3-20.3c-0.9-0.4-1.6-1.3-1.7-2.3s0.2-2,1-2.7l29.6-26.1L94.2,40c-1.1,0.9-2.4,1.5-3.9,1.8
		c-0.6,0.1-1.1,0.1-1.6,0.1c-4.2,0-7.8-3-8.5-7.1C79.8,32.6,80.3,30.3,81.6,28.4z M183.8,278.7c-0.6,4-4,7-8.1,7.2
		c-0.5,0-0.9,0-1.6-0.1c-0.3-0.1-0.7-0.2-1-0.3L125,340.9c-0.7,0.8-1.8,1.1-2.8,1c-1-0.1-1.9-0.8-2.2-1.7l-20.1-47.5l-41,50.8
		c1,1.7,1.5,3.9,1.2,6c-0.6,4-4,7-8.1,7.2c-0.5,0-0.9,0-1.6-0.1c-2.2-0.4-4.3-1.6-5.6-3.4c-1.3-1.9-1.9-4.2-1.6-6.5
		c0.6-4,4-7,8.1-7.2c0.5,0,0.9,0,1.6,0.1c0.3,0.1,0.7,0.2,1.1,0.3L98.2,285c0.7-0.8,1.7-1.3,2.8-1.1c1.1,0.2,1.9,0.8,2.3,1.8
		l20.2,47.7l44.6-51.3c-1.2-1.7-1.7-4-1.3-6.1c0.6-4,4-7,8.1-7.2c0.5,0,0.9,0,1.6,0.1c2.2,0.4,4.3,1.6,5.6,3.4
		C183.5,274.4,184,276.6,183.8,278.7z M707.8,353.8c-0.8,2.2-2.3,3.9-4.4,4.9c-0.5,0.3-1,0.5-1.5,0.6c-4,1.1-8.2-0.9-10-4.6
		c-0.4-0.9-0.7-1.8-0.7-2.8l-43.7-8.4c-0.9-0.1-1.8-0.8-2.2-1.8c-0.4-0.9-0.3-2,0.3-2.8l21.8-32.8l-43.2-7.3c-0.9,1.7-2.3,2.9-4,3.8
		c-0.5,0.3-1,0.5-1.5,0.6c-4,1.1-8.2-0.9-10-4.6c-2.1-4.3-0.3-9.5,4.1-11.6c0.5-0.3,1-0.5,1.5-0.6c4-1.1,8.2,0.9,10,4.6
		c0.2,0.6,0.4,1.1,0.6,1.7l48,8.1c1,0.1,1.9,0.8,2.3,1.8c0.4,1,0.3,2-0.3,2.9l-21.9,32.9l39.7,7.6c0.9-1.2,2-2.2,3.4-2.8
		c0.5-0.3,1-0.5,1.5-0.6c4-1.1,8.2,0.9,10,4.6C708.5,349.3,708.5,351.6,707.8,353.8z M740.4,32.5c-0.1,0.6-0.2,1.1-0.5,1.6
		c-1.5,3.8-5.6,5.9-9.7,5.1c-2.2-0.4-4-1.7-5.3-3.3l-63.8,23.5l37.4,35.7c0.8,0.8,1.1,1.8,0.9,2.9s-1,1.9-2,2.1l-66.9,22
		c-0.1,0.4,0,0.8-0.1,1.1c-0.1,0.6-0.2,1.1-0.5,1.6c-1.5,3.8-5.6,5.9-9.7,5.1c-2.2-0.4-4.2-1.8-5.5-3.7c-1.3-1.9-1.7-4.2-1.2-6.5
		c0.1-0.6,0.2-1.1,0.5-1.6c1.5-3.8,5.6-5.9,9.7-5.1c2.1,0.5,3.9,1.6,5.1,3.3L691,96l-37.4-35.5c-0.7-0.7-1.1-1.7-0.9-2.8
		c0.2-1.1,0.9-1.8,1.9-2.2l68.8-25.3c0-0.3,0.1-0.7,0.1-1c0.1-0.6,0.2-1.1,0.5-1.6c1.5-3.8,5.6-5.9,9.7-5.1c2.2,0.4,4.1,1.7,5.4,3.6
		C740.4,27.9,740.9,30.2,740.4,32.5z"/>
	<path fill="#FFFFFF" d="M732.7,27.2c-1.9-0.5-3.9,0.8-4.3,2.8c-0.4,2,0.8,3.9,2.8,4.3c1.7,0.3,3.4-0.6,4.1-2.1
		c0.1-0.3,0.1-0.5,0.2-0.6c0.2-0.9,0-1.9-0.5-2.7C734.5,28,733.6,27.5,732.7,27.2z"/>
	<path fill="#FFFFFF" d="M698,347.7c-0.9,0.4-1.5,1.1-1.8,2.1c-0.3,1-0.2,1.9,0.1,2.8c0.8,1.5,2.4,2.4,4.2,1.9
		c0.2,0,0.4-0.1,0.6-0.2c0.9-0.4,1.5-1.2,1.8-2.1c0.3-1,0.2-1.9-0.1-2.8C702,347.7,699.8,346.9,698,347.7z"/>
</g>
</svg>
