<?xml version="1.0" encoding="utf-8"?>
<!-- Generator: Adobe Illustrator 18.0.0, SVG Export Plug-In . SVG Version: 6.00 Build 0)  -->
<!DOCTYPE svg PUBLIC "-//W3C//DTD SVG 1.1//EN" "http://www.w3.org/Graphics/SVG/1.1/DTD/svg11.dtd">
<svg version="1.1" id="Layer_1" xmlns="http://www.w3.org/2000/svg" xmlns:xlink="http://www.w3.org/1999/xlink" x="0px" y="0px"
	 viewBox="0 0 800 400" enable-background="new 0 0 800 400" xml:space="preserve">
<g>
	<path fill="#FFFFFF" d="M619.2,293.6c-1.7,0.9-2.7,3-1.6,5c0.8,1.5,2.4,2.4,4.3,1.9c0.2,0,0.4-0.1,0.6-0.2c0.9-0.4,1.5-1.2,1.8-2.1
		c0-0.1,0-0.1,0-0.2c0-0.3,0-0.5,0-0.8c0-0.2,0.1-0.3,0.1-0.5c-0.1-0.5-0.2-0.9-0.4-1.3C623.3,293.6,621,292.7,619.2,293.6z"/>
	<path fill="#FFFFFF" d="M171.2,275.7c-0.2,0-0.5,0-0.7,0c-1.7,0-3.2,1.3-3.4,3.1c-0.3,2,1.1,3.9,3.1,4.2c1.8,0.3,3.9-1.1,4.2-3.1
		c0.1-0.9-0.1-1.9-0.8-2.7C173.1,276.3,172.2,275.8,171.2,275.7z"/>
	<path fill="#FFFFFF" d="M83,33.7c1-0.2,1.7-0.7,2.3-1.5c0.6-0.8,0.8-1.8,0.6-2.8c-0.3-1.8-1.8-3.1-3.6-3.1c-0.3,0-0.5,0.1-0.7,0.1
		c-0.9,0.2-1.8,0.7-2.3,1.5c-0.6,0.8-0.8,1.8-0.6,2.8C79.2,32.7,81,34.2,83,33.7z"/>
	<path fill="#FFFFFF" d="M150.4,111.2c1.9-0.4,3.3-2.3,2.9-4.3c-0.3-1.8-1.8-3.1-3.6-3.1c-0.3,0-0.5,0.1-0.7,0.1
		c-0.9,0.2-1.8,0.7-2.3,1.5c0,0.1-0.1,0.1-0.1,0.2c0,0.3-0.1,0.5-0.2,0.8c0,0.1-0.1,0.3-0.2,0.4c-0.1,0.4-0.1,0.9,0,1.3
		C146.5,110.2,148.3,111.6,150.4,111.2z"/>
	<path fill="#FFFFFF" d="M45.1,347.7c-0.2,0-0.5,0-0.7,0c-1.7,0-3.2,1.3-3.4,3.1c-0.1,1,0,1.9,0.6,2.8c0.4,0.8,1.3,1.4,2.3,1.5
		c2,0.3,3.9-1.1,4.2-3.1C48.3,350,46.9,348.1,45.1,347.7z"/>
	<path fill="#FFFFFF" d="M627.4,116.5c-1.9-0.5-4,0.8-4.4,2.9c-0.2,0.9,0,1.9,0.5,2.8s1.4,1.3,2.3,1.6c1.7,0.3,3.5-0.6,4.2-2.1
		c0.1-0.3,0.1-0.5,0.2-0.6C630.7,118.8,629.4,116.9,627.4,116.5z"/>
	<path fill="#FFFFFF" d="M-8.1-3.9v407.8h816.2V-3.9H-8.1z M75.2,25.1c1.3-1.9,3.3-3.3,5.6-3.7c0.6-0.1,1.1-0.1,1.6-0.1
		c4.3,0,8,3.1,8.7,7.2c0.2,1,0.2,2,0,3.1l40.8,19.7c0.9,0.4,1.6,1.3,1.7,2.3c0.1,1-0.2,2-1,2.8L102.5,83l40.6,18.6
		c1.3-1.4,3-2.4,4.9-2.8c0.6-0.1,1.1-0.1,1.6-0.1c4.3,0,8,3.1,8.7,7.2c0.8,4.7-2.3,9.3-7,10.3c-0.6,0.1-1.1,0.1-1.6,0.1
		c-4.3,0-8-3.1-8.7-7.2c-0.1-0.6-0.1-1.2-0.1-1.8L95.7,86.6c-0.9-0.4-1.6-1.3-1.7-2.3s0.2-2,1-2.8l30.2-26.6L88,36.9
		c-1.1,0.9-2.4,1.5-4,1.8c-0.6,0.1-1.1,0.1-1.6,0.1c-4.3,0-8-3.1-8.7-7.2C73.3,29.4,73.8,27,75.2,25.1z M179.5,280.5
		c-0.6,4.1-4.1,7.1-8.3,7.3c-0.5,0-0.9,0-1.6-0.1c-0.3-0.1-0.7-0.2-1-0.3L119.5,344c-0.7,0.8-1.8,1.1-2.9,1s-1.9-0.8-2.2-1.7
		l-20.5-48.5L52,346.6c1,1.7,1.5,4,1.2,6.1c-0.6,4.1-4.1,7.1-8.3,7.3c-0.5,0-0.9,0-1.6-0.1c-2.2-0.4-4.4-1.6-5.7-3.5
		c-1.3-1.9-1.9-4.3-1.6-6.6c0.6-4.1,4.1-7.1,8.3-7.3c0.5,0,0.9,0,1.6,0.1c0.3,0.1,0.7,0.2,1.1,0.3l45.1-56c0.7-0.8,1.7-1.3,2.9-1.1
		c1.1,0.2,1.9,0.8,2.3,1.8l20.6,48.7l45.5-52.3c-1.2-1.7-1.7-4.1-1.3-6.2c0.6-4.1,4.1-7.1,8.3-7.3c0.5,0,0.9,0,1.6,0.1
		c2.2,0.4,4.4,1.6,5.7,3.5C179.2,276.1,179.7,278.3,179.5,280.5z M714.2,357.1c-0.8,2.2-2.3,4-4.5,5c-0.5,0.3-1,0.5-1.5,0.6
		c-4.1,1.1-8.4-0.9-10.2-4.7c-0.4-0.9-0.7-1.8-0.7-2.9l-44.6-8.6c-0.9-0.1-1.8-0.8-2.2-1.8c-0.4-0.9-0.3-2,0.3-2.9l22.2-33.5
		l-44.1-7.4c-0.9,1.7-2.3,3-4.1,3.9c-0.5,0.3-1,0.5-1.5,0.6c-4.1,1.1-8.4-0.9-10.2-4.7c-2.1-4.4-0.3-9.7,4.2-11.8
		c0.5-0.3,1-0.5,1.5-0.6c4.1-1.1,8.4,0.9,10.2,4.7c0.2,0.6,0.4,1.1,0.6,1.7l49,8.3c1,0.1,1.9,0.8,2.3,1.8c0.4,1,0.3,2-0.3,3
		l-22.3,33.6l40.5,7.8c0.9-1.2,2-2.2,3.5-2.9c0.5-0.3,1-0.5,1.5-0.6c4.1-1.1,8.4,0.9,10.2,4.7C714.9,352.5,714.9,354.9,714.2,357.1z
		 M747.5,29.3c-0.1,0.6-0.2,1.1-0.5,1.6c-1.5,3.9-5.7,6-9.9,5.2c-2.2-0.4-4.1-1.7-5.4-3.4l-65.1,24l38.2,36.4c0.8,0.8,1.1,1.8,0.9,3
		s-1,1.9-2,2.1l-68.3,22.5c-0.1,0.4,0,0.8-0.1,1.1c-0.1,0.6-0.2,1.1-0.5,1.6c-1.5,3.9-5.7,6-9.9,5.2c-2.2-0.4-4.3-1.8-5.6-3.8
		c-1.3-1.9-1.7-4.3-1.2-6.6c0.1-0.6,0.2-1.1,0.5-1.6c1.5-3.9,5.7-6,9.9-5.2c2.1,0.5,4,1.6,5.2,3.4L697,94.1l-38.2-36.2
		c-0.7-0.7-1.1-1.7-0.9-2.9c0.2-1.1,0.9-1.8,1.9-2.2l70.2-25.8c0-0.3,0.1-0.7,0.1-1c0.1-0.6,0.2-1.1,0.5-1.6c1.5-3.9,5.7-6,9.9-5.2
		c2.2,0.4,4.2,1.7,5.5,3.7C747.5,24.6,748,26.9,747.5,29.3z"/>
	<path fill="#FFFFFF" d="M739.6,23.8c-1.9-0.5-4,0.8-4.4,2.9s0.8,4,2.9,4.4c1.7,0.3,3.5-0.6,4.2-2.1c0.1-0.3,0.1-0.5,0.2-0.6
		c0.2-0.9,0-1.9-0.5-2.8C741.4,24.7,740.5,24.1,739.6,23.8z"/>
	<path fill="#FFFFFF" d="M704.2,350.9c-0.9,0.4-1.5,1.1-1.8,2.1c-0.3,1-0.2,1.9,0.1,2.9c0.8,1.5,2.4,2.4,4.3,1.9
		c0.2,0,0.4-0.1,0.6-0.2c0.9-0.4,1.5-1.2,1.8-2.1c0.3-1,0.2-1.9-0.1-2.9C708.3,350.9,706,350.1,704.2,350.9z"/>
</g>
</svg>
