<?xml version="1.0" encoding="utf-8"?>
<!-- Generator: Adobe Illustrator 18.0.0, SVG Export Plug-In . SVG Version: 6.00 Build 0)  -->
<!DOCTYPE svg PUBLIC "-//W3C//DTD SVG 1.1//EN" "http://www.w3.org/Graphics/SVG/1.1/DTD/svg11.dtd">
<svg version="1.1" id="Layer_1" xmlns="http://www.w3.org/2000/svg" xmlns:xlink="http://www.w3.org/1999/xlink" x="0px" y="0px"
	 viewBox="0 0 800 400" enable-background="new 0 0 800 400" xml:space="preserve">
<path display="none" d="M208.6,334.5c3.3-6,2.2-13.5-2.6-18.4c-1-1-2.2-1.9-3.5-2.6c-7.5-4.1-16.9-1.4-21,6.1c-2.2,4-2.4,8.8-0.9,13
	l-42.8,36.6l-22.1-61c-0.5-1.5-1.8-2.7-3.3-3.1s-3.2-0.1-4.5,0.9l-49.5,38.5c-0.5-0.3-0.9-0.6-1.4-0.9c-7.5-4.1-16.9-1.4-21,6.1
	c-3.3,6-2.2,13.5,2.6,18.4c1,1,2.2,1.9,3.5,2.6c3.6,2,7.8,2.4,11.7,1.3c4-1.2,7.2-3.8,9.2-7.4c2-3.7,2.4-8,1.2-11.9l44.4-34.5
	l22.2,61.4c0.6,1.5,1.8,2.7,3.4,3.1c1.6,0.4,3.3,0,4.5-1l48.2-41.2c0.2,0.1,0.4,0.2,0.5,0.3c3.6,2,7.8,2.4,11.7,1.3
	C203.3,340.8,206.6,338.1,208.6,334.5z M51.2,362.2c-1.4,0.4-2.9,0.2-4.1-0.5c-0.5-0.3-0.9-0.6-1.2-0.9c-1.7-1.7-2.1-4.4-0.9-6.5
	c1.4-2.6,4.8-3.6,7.4-2.1c0.5,0.3,0.9,0.6,1.2,0.9c1.7,1.7,2.1,4.4,0.9,6.5C53.7,360.9,52.6,361.8,51.2,362.2z M196.6,332.3
	c-1.4,0.4-2.9,0.2-4.1-0.5c-0.5-0.3-0.9-0.6-1.2-0.9c-1.7-1.7-2.1-4.4-0.9-6.5c1.4-2.6,4.8-3.6,7.4-2.1c0.5,0.3,0.9,0.6,1.2,0.9
	c1.7,1.7,2.1,4.4,0.9,6.5C199.1,331,198,331.9,196.6,332.3z"/>
<path display="none" d="M22.6,46.9c3.1,0.8,6.4,0.3,9.1-1.3c0.1-0.1,0.3-0.2,0.4-0.3l38.8,30.8c1,0.8,2.3,1.1,3.6,0.7
	c1.2-0.4,2.2-1.3,2.6-2.5l15.6-48.5l35.6,25.6c-0.8,3.1-0.4,6.4,1.3,9.3c1.7,2.8,4.3,4.7,7.4,5.5c3.1,0.8,6.4,0.3,9.1-1.3
	c1-0.6,1.9-1.3,2.6-2.1c3.6-3.9,4.3-9.8,1.5-14.4c-3.4-5.7-10.8-7.6-16.5-4.2c-0.4,0.2-0.7,0.5-1.1,0.8L92.8,16.3
	c-1-0.7-2.3-0.9-3.5-0.5s-2.1,1.3-2.5,2.5L71.3,66.5L36.9,39.2c1.1-3.3,0.8-7-1-10.1c-3.4-5.7-10.8-7.6-16.5-4.2
	c-1,0.6-1.9,1.3-2.6,2.1c-3.6,3.9-4.3,9.8-1.5,14.4C16.8,44.2,19.4,46.2,22.6,46.9z M136.1,56.7c-1-1.6-0.7-3.7,0.5-5.1
	c0.3-0.3,0.6-0.5,0.9-0.8c2-1.2,4.6-0.5,5.8,1.5c1,1.6,0.7,3.7-0.5,5.1c-0.3,0.3-0.6,0.5-0.9,0.8c-1,0.6-2.1,0.8-3.2,0.5
	C137.6,58.3,136.7,57.7,136.1,56.7z M21.9,37.4c-1-1.6-0.7-3.7,0.5-5.1c0.3-0.3,0.6-0.5,0.9-0.8c2-1.2,4.6-0.5,5.8,1.5
	c1,1.6,0.7,3.7-0.5,5.1c-0.3,0.3-0.6,0.5-0.9,0.8c-1,0.6-2.1,0.8-3.2,0.5C23.4,39.1,22.4,38.4,21.9,37.4z"/>
<path display="none" d="M681,362.9c6.8-1,12.1-6.4,13-13.2c0.2-1.4,0.2-2.9,0-4.4c-1.2-8.4-9.1-14.3-17.5-13
	c-4.6,0.7-8.5,3.4-10.8,7.2l-55-11.9l35.2-54.5c0.9-1.3,1-3,0.5-4.5c-0.6-1.5-1.8-2.6-3.4-3l-60.6-16.1c0-0.6-0.1-1.1-0.1-1.7
	c-1.2-8.4-9.1-14.3-17.5-13c-6.8,1-12.1,6.4-13,13.2c-0.2,1.4-0.2,2.9,0,4.4c0.6,4.1,2.8,7.7,6.1,10.1c3.3,2.5,7.4,3.5,11.5,2.9
	c4.2-0.6,7.9-3,10.3-6.3l54.3,14.5l-35.4,54.8c-0.9,1.4-1.1,3.1-0.4,4.6c0.6,1.5,2,2.6,3.6,3l62,13.5c0,0.2,0,0.4,0.1,0.6
	c0.6,4.1,2.8,7.7,6.1,10.1C672.9,362.5,676.9,363.5,681,362.9z M563.7,254.3c-1.2-0.9-1.9-2.1-2.1-3.6c-0.1-0.5-0.1-1,0-1.5
	c0.3-2.4,2.2-4.3,4.6-4.6c3-0.4,5.7,1.6,6.2,4.6c0.1,0.5,0.1,1,0,1.5c-0.3,2.4-2.2,4.3-4.6,4.6C566.3,255.5,564.9,255.2,563.7,254.3
	z M675.5,352c-1.2-0.9-1.9-2.1-2.1-3.6c-0.1-0.5-0.1-1,0-1.5c0.3-2.4,2.2-4.3,4.6-4.6c3-0.4,5.7,1.6,6.2,4.6c0.1,0.5,0.1,1,0,1.5
	c-0.3,2.4-2.2,4.3-4.6,4.6C678.1,353.2,676.7,352.9,675.5,352z"/>
<path display="none" d="M651.9,100.2c-0.5,4.9,2.4,9.6,6.9,11.4c1,0.4,2,0.6,3,0.7c6.1,0.6,11.5-3.9,12.1-10
	c0.3-3.3-0.9-6.5-3.1-8.8l17.9-36.3l31.9,34.1c0.8,0.8,1.9,1.3,3.1,1.1c1.1-0.1,2.1-0.8,2.7-1.8l21.8-39.5c0.4,0.1,0.8,0.2,1.2,0.2
	c6.1,0.6,11.5-3.9,12.1-10c0.5-4.9-2.4-9.6-6.9-11.4c-1-0.4-2-0.6-3-0.7c-3-0.3-5.8,0.6-8.1,2.5s-3.7,4.5-4,7.5s0.7,6,2.6,8.2
	l-19.6,35.4l-32.1-34.3c-0.8-0.9-2-1.3-3.2-1.1s-2.2,0.9-2.7,2l-20.2,40.9c-0.2,0-0.3,0-0.5-0.1c-3-0.3-5.8,0.6-8.1,2.5
	C653.7,94.6,652.2,97.2,651.9,100.2z M748.2,37.3c0.8-0.7,1.8-1,2.9-0.9c0.4,0,0.7,0.1,1.1,0.3c1.6,0.6,2.6,2.3,2.4,4
	c-0.2,2.1-2.1,3.7-4.3,3.5c-0.4,0-0.7-0.1-1.1-0.3c-1.6-0.6-2.6-2.3-2.4-4C746.9,38.9,747.4,37.9,748.2,37.3z M660.5,98.3
	c0.8-0.7,1.8-1,2.9-0.9c0.4,0,0.7,0.1,1.1,0.3c1.6,0.6,2.6,2.3,2.4,4c-0.2,2.1-2.1,3.7-4.3,3.5c-0.4,0-0.7-0.1-1.1-0.3
	c-1.6-0.6-2.6-2.3-2.4-4C659.2,99.9,659.7,98.9,660.5,98.3z"/>
<path display="none" fill="#E8E8E8" d="M360.2,87.6c1,4.2,4.7,7.2,9,7.4c0.9,0,1.8-0.1,2.7-0.3c5.2-1.3,8.4-6.5,7.1-11.7
	c-0.7-2.8-2.6-5.1-5.1-6.4l4.2-35.1l36.1,18.8c0.9,0.5,1.9,0.5,2.8,0c0.9-0.4,1.5-1.3,1.7-2.3l6.5-38.8c0.4,0,0.7-0.1,1.1-0.2
	c5.2-1.3,8.4-6.5,7.1-11.7c-1-4.2-4.7-7.2-9-7.4c-0.9,0-1.8,0.1-2.7,0.3c-2.5,0.6-4.6,2.2-6,4.4c-1.3,2.2-1.7,4.8-1.1,7.3
	c0.6,2.6,2.3,4.7,4.5,6l-5.8,34.8L377,33.9c-0.9-0.5-2-0.5-2.9,0s-1.5,1.4-1.7,2.4l-4.7,39.5c-0.1,0-0.3,0.1-0.4,0.1
	c-2.5,0.6-4.6,2.2-6,4.4C360,82.5,359.6,85.1,360.2,87.6z M421.1,7.9c0.5-0.8,1.2-1.3,2.1-1.5c0.3-0.1,0.6-0.1,1-0.1
	c1.5,0.1,2.8,1.1,3.2,2.6c0.4,1.8-0.7,3.7-2.5,4.1c-0.3,0.1-0.6,0.1-1,0.1c-1.5-0.1-2.8-1.1-3.2-2.6C420.5,9.6,420.7,8.7,421.1,7.9z
	 M366.7,83.6c0.5-0.8,1.2-1.3,2.1-1.5c0.3-0.1,0.6-0.1,1-0.1c1.5,0.1,2.8,1.1,3.2,2.6c0.4,1.8-0.7,3.7-2.5,4.1
	c-0.3,0.1-0.6,0.1-1,0.1c-1.5-0.1-2.8-1.1-3.2-2.6C366.1,85.3,366.2,84.3,366.7,83.6z"/>
<path display="none" fill="#E8E8E8" d="M461.7,386.4c4.1,1.2,8.6-0.6,10.8-4.2c0.5-0.8,0.9-1.6,1.1-2.5c1.4-5.1-1.6-10.5-6.7-11.9
	c-2.8-0.8-5.7-0.2-8,1.3l-28.5-20.9l34.2-22.2c0.8-0.5,1.4-1.5,1.4-2.5c0.1-1-0.4-2-1.2-2.6l-30.6-24.8c0.1-0.3,0.3-0.7,0.4-1
	c1.4-5.1-1.6-10.5-6.7-11.9c-4.1-1.2-8.6,0.6-10.8,4.2c-0.5,0.8-0.9,1.6-1.1,2.5c-0.7,2.5-0.4,5.1,0.9,7.4s3.3,3.9,5.8,4.6
	c2.6,0.7,5.3,0.3,7.5-1l27.4,22.2l-34.3,22.3c-0.9,0.6-1.4,1.5-1.4,2.5s0.4,2,1.3,2.6l32,23.6c0,0.1-0.1,0.3-0.1,0.4
	c-0.7,2.5-0.4,5.1,0.9,7.4C457.2,384.1,459.2,385.7,461.7,386.4z M422.4,294.1c-0.4-0.8-0.6-1.7-0.3-2.6c0.1-0.3,0.2-0.6,0.4-0.9
	c0.8-1.3,2.4-1.9,3.8-1.5c1.8,0.5,2.9,2.4,2.4,4.2c-0.1,0.3-0.2,0.6-0.4,0.9c-0.8,1.3-2.4,1.9-3.8,1.5
	C423.5,295.5,422.8,294.9,422.4,294.1z M461.4,378.8c-0.4-0.8-0.6-1.7-0.3-2.6c0.1-0.3,0.2-0.6,0.4-0.9c0.8-1.3,2.4-1.9,3.8-1.5
	c1.8,0.5,2.9,2.4,2.4,4.2c-0.1,0.3-0.2,0.6-0.4,0.9c-0.8,1.3-2.4,1.9-3.8,1.5C462.5,380.1,461.8,379.6,461.4,378.8z"/>
<text transform="matrix(1 0 0 1 331.813 236)" display="none" fill="#9B9A9A" enable-background="new    " font-family="'BrooklynSamuelsFive-Fat'" font-size="12">Using animation on CSS</text>
<g>
	<path fill="#FFFFFF" d="M320,287.9c-0.4-1.3-1.7-2.2-3.1-2c-0.8,0.1-1.4,0.4-1.9,1c-0.5,0.6-0.6,1.4-0.6,2.2
		c0.1,1.6,1.6,2.7,3.2,2.6c1.6-0.1,2.7-1.6,2.5-3.2C320,288.3,320,288.1,320,287.9z"/>
	<path fill="#FFFFFF" d="M401.2,368.2c-0.4-1.3-1.7-2.2-3.1-2c-1.6,0.1-2.7,1.6-2.6,3.2c0.1,1.6,1.6,2.7,3.2,2.6
		c0.8-0.1,1.4-0.4,2-1c0.5-0.6,0.6-1.4,0.6-2.2C401.2,368.6,401.2,368.4,401.2,368.2z"/>
	<path fill="#FFFFFF" d="M458.8,137.6c-0.2,0.1-0.4,0.2-0.6,0.3c-1.5,0.9-2.2,2.7-1.6,4.3c0.3,0.9,0.9,1.7,1.8,2.1
		c0.9,0.5,1.9,0.5,2.8,0.2c1.9-0.7,2.8-2.8,2.2-4.6C462.8,138.1,460.7,137.1,458.8,137.6z"/>
	<path fill="#FFFFFF" d="M295.9,95.5c-1.6-0.2-2.9,1-3.1,2.5c-0.1,0.7,0.1,1.5,0.6,2.2c0.4,0.5,1.1,1,1.9,1.1c0.1,0,0.4,0,0.6,0
		c1.3-0.1,2.5-1.2,2.7-2.6C298.6,97.1,297.5,95.8,295.9,95.5z"/>
	<path fill="#FFFFFF" d="M536.6,23.6c1.9-0.7,2.8-2.8,2.2-4.6c-0.4-0.9-1-1.7-1.8-2c-0.9-0.5-1.9-0.5-2.8-0.2
		c-0.2,0.1-0.4,0.2-0.6,0.3c-1.5,0.9-2.2,2.7-1.6,4.3C532.7,23.3,534.7,24.3,536.6,23.6z"/>
	<path fill="#FFFFFF" d="M155.2,215.4c0.8-0.3,1.6-1.1,1.9-2c0.4-0.8,0.4-1.8,0.1-2.7c-0.1-0.2-0.3-0.4-0.4-0.6
		c-0.9-1.5-2.8-2-4.3-1.3c-1.8,0.8-2.7,2.9-1.9,4.7C151.2,215.2,153.3,216.2,155.2,215.4z"/>
	<path fill="#FFFFFF" d="M32,141.3c-0.9-1.5-2.8-2-4.3-1.3c-0.9,0.4-1.6,1-2,1.9c-0.4,0.8-0.4,1.8-0.1,2.7c0.8,1.8,2.9,2.7,4.7,1.9
		c1.8-0.8,2.7-2.9,2.1-4.7C32.3,141.7,32.1,141.5,32,141.3z"/>
	<path fill="#FFFFFF" d="M391.4,39.9c0.1,0,0.4,0,0.6,0c1.3-0.1,2.5-1.2,2.7-2.6c0-0.8-0.1-1.5-0.7-2.1c-0.4-0.5-1.1-1-1.9-1.1
		c-1.6-0.2-2.9,1-3.1,2.5C388.8,38.2,390,39.7,391.4,39.9z"/>
	<path fill="#FFFFFF" d="M494.4,321.1c-0.6,0.6-0.8,1.3-0.8,2.1c0,0.7,0.3,1.5,0.9,2c0.1,0.1,0.2,0.2,0.4,0.3
		c1.2,0.8,2.7,0.6,3.7-0.4c1.1-1.2,1-3-0.1-4.1C497.3,319.9,495.5,320,494.4,321.1z"/>
	<path fill="#FFFFFF" d="M65.7,363.4c-0.2-0.1-0.5-0.1-0.7-0.1c-1.7,0-3.2,1.2-3.5,2.9c-0.1,0.9,0.1,1.9,0.6,2.7s1.4,1.3,2.3,1.5
		c1.9,0.3,3.8-1,4.2-2.9C69,365.5,67.7,363.7,65.7,363.4z"/>
	<path fill="#FFFFFF" d="M117.9,29.8c1-0.2,1.7-0.7,2.3-1.5c0.6-0.8,0.8-1.8,0.6-2.7c-0.3-1.8-1.8-3-3.5-3c-0.3,0-0.5,0.1-0.7,0.1
		c-0.9,0.2-1.8,0.7-2.3,1.5c-0.6,0.8-0.8,1.8-0.6,2.7C114.1,28.8,115.9,30.2,117.9,29.8z"/>
	<path fill="#FFFFFF" d="M191.6,296.7c-0.2-0.1-0.5-0.1-0.7-0.1c-1.7,0-3.2,1.2-3.5,2.9c-0.3,1.9,0.9,3.8,2.9,4.2
		c1.9,0.3,3.8-1,4.2-2.9c0.2-0.9,0-1.9-0.6-2.6C193.4,297.4,192.5,296.9,191.6,296.7z"/>
	<path fill="#FFFFFF" d="M674.8,302.1c-0.2,0-0.4,0.1-0.6,0.2c-0.9,0.4-1.5,1.2-1.8,2.1c-0.3,1-0.2,1.9,0.2,2.8
		c0.8,1.7,3,2.5,4.8,1.6c0.9-0.4,1.5-1.1,1.8-2.1s0.2-1.9-0.2-2.8C678.2,302.4,676.5,301.6,674.8,302.1z"/>
	<path fill="#FFFFFF" d="M608.1,331.6c-1.2,1.1-1.1,2.9,0.1,4.1c0.1,0.1,0.2,0.2,0.4,0.3c1.2,0.8,2.7,0.6,3.7-0.4
		c0.5-0.6,0.8-1.3,0.8-2.1c0-0.7-0.3-1.5-0.9-2C611,330.4,609.2,330.5,608.1,331.6z"/>
	<path fill="#FFFFFF" d="M0,0v399.6h799.8V0H0z M110.2,21.3c1.3-1.9,3.2-3.2,5.5-3.6c0.6-0.1,1.1-0.1,1.6-0.1c4.2,0,7.8,3,8.5,7.1
		c0.2,1,0.2,2,0,3l40,19.3c0.9,0.4,1.6,1.3,1.7,2.3c0.1,1-0.2,2-1,2.7L137,78.1l39.8,18.2c1.3-1.4,2.9-2.4,4.8-2.7
		c0.6-0.1,1.1-0.1,1.6-0.1c4.2,0,7.8,3,8.5,7.1c0.8,4.6-2.3,9.1-6.9,10.1c-0.6,0.1-1.1,0.1-1.6,0.1c-4.2,0-7.8-3-8.5-7.1
		c-0.1-0.6-0.1-1.2-0.1-1.8l-44.3-20.3c-0.9-0.4-1.6-1.3-1.7-2.3c-0.1-1,0.2-2,1-2.7l29.6-26.1l-36.4-17.6c-1.1,0.9-2.4,1.5-3.9,1.8
		c-0.6,0.1-1.1,0.1-1.6,0.1c-4.2,0-7.8-3-8.5-7.1C108.4,25.5,108.9,23.2,110.2,21.3z M32.3,151.1c-3.8,1.6-8.2,0.2-10.4-3.2
		c-0.3-0.4-0.5-0.9-0.7-1.4c-0.8-2.2-0.8-4.5,0-6.6c0.9-2.1,2.5-3.8,4.7-4.7c3.8-1.6,8.2-0.2,10.4,3.2c0.3,0.4,0.5,0.9,0.7,1.4
		c0.1,0.3,0.3,0.6,0.3,1.1l69.8,9.2c1.1,0.2,2,0.8,2.4,1.8c0.4,1,0.3,2-0.3,2.9L79.1,197l67,11.4c0.8-1.9,2.5-3.4,4.5-4.3
		c3.8-1.6,8.2-0.2,10.4,3.2c0.3,0.4,0.5,0.9,0.7,1.4c0.8,2.2,0.8,4.5,0,6.6c-1,2.1-2.5,3.8-4.7,4.7c-3.8,1.6-8.2,0.2-10.4-3.2
		c-0.3-0.4-0.5-0.9-0.7-1.4c-0.1-0.3-0.2-0.7-0.3-1l-72.3-12.2c-1.1-0.2-1.9-0.9-2.3-1.9c-0.4-0.9-0.3-2,0.3-2.8l30.1-41.9L36.8,147
		C35.9,148.8,34.4,150.3,32.3,151.1z M199.3,301.8c-0.7,4.1-4.3,7-8.4,7c-0.5,0-1.1-0.1-1.6-0.2c-0.4,0-0.7-0.1-1-0.2l-49.8,53.8
		c-0.7,0.8-1.8,1.1-2.8,0.9c-1-0.2-1.8-0.9-2.2-1.9L115,313.1l-42.6,49.4c1.1,1.7,1.5,3.9,1.1,6c-0.7,4.1-4.3,7-8.4,7
		c-0.5,0-1.1-0.1-1.6-0.2c-2.3-0.4-4.2-1.7-5.5-3.6c-1.3-2-1.7-4.2-1.3-6.5c0.7-4.1,4.3-7,8.4-7c0.5,0,1.1,0.1,1.6,0.2
		c0.4,0.1,0.7,0.2,1.1,0.3l46-53.4c0.7-0.8,1.8-1.2,2.8-1c1.1,0.2,1.9,0.9,2.3,1.9l18.6,48.3l46.2-49.9c-1.1-1.7-1.5-3.9-1.1-6.1
		c0.7-4.1,4.3-7,8.4-7c0.5,0,1.1,0.1,1.6,0.2c2.3,0.4,4.2,1.7,5.5,3.6C199.4,297.2,199.9,299.5,199.3,301.8z M302.5,99
		c-0.4,3.3-3.1,5.9-6.3,6.1c-0.4,0-0.8,0-1.3,0c-1.8-0.2-3.5-1.1-4.6-2.5c-1.1-1.4-1.6-3.3-1.5-5c0.4-3.3,3.1-5.9,6.3-6.1
		c0.4,0,0.8,0,1.3,0c0.2,0.1,0.6,0.1,0.8,0.2l36.3-46.2c0.5-0.6,1.3-1,2.2-0.9c0.9,0.1,1.5,0.6,1.9,1.3l17.9,37.2l30.8-42.2
		c-0.9-1.4-1.4-3.1-1.2-4.8c0.4-3.3,3.1-5.9,6.3-6.1c0.4,0,0.8,0,1.3,0c1.8,0.2,3.5,1.1,4.6,2.5c1.2,1.4,1.7,3.2,1.5,5
		c-0.4,3.3-3.1,5.9-6.3,6.1c-0.4,0-0.8,0-1.3,0c-0.4-0.1-0.6,0-0.9-0.2l-33.3,45.6c-0.5,0.7-1.3,1.1-2.2,1c-0.8,0-1.5-0.6-1.9-1.3
		l-17.9-37.4l-33.6,42.8C302.1,95.6,302.6,97.2,302.5,99z M403.8,373.5c-1.1,1.4-2.8,2.3-4.6,2.5c-3.3,0.4-6.4-1.6-7.3-4.8
		c-0.1-0.4-0.2-0.9-0.3-1.3c-0.1-0.3-0.1-0.5-0.1-0.8l-53.1-25.3c-0.7-0.4-1.2-1.1-1.3-1.9c-0.1-0.8,0.3-1.6,0.9-2.1l32.4-25.7
		l-47.9-20.7c-1.1,1.2-2.6,2.1-4.3,2.2c-3.3,0.4-6.4-1.6-7.3-4.8c-0.1-0.4-0.2-0.9-0.3-1.3c-0.2-1.9,0.4-3.7,1.5-5.1
		c1.1-1.4,2.8-2.3,4.6-2.5c3.3-0.4,6.4,1.6,7.3,4.8c0.1,0.4,0.2,0.9,0.3,1.3c0,0.3,0,0.6,0,0.9l51.8,22.4c0.8,0.2,1.3,1,1.4,1.8
		c0.2,0.9-0.2,1.7-0.9,2.2L344,341.2l49.2,23.4c1.1-1.2,2.6-2.2,4.4-2.4c3.3-0.4,6.4,1.6,7.3,4.8c0.1,0.4,0.2,0.9,0.3,1.3
		C405.5,370.2,404.9,372,403.8,373.5z M468.1,138.3c1.3,3.9-0.2,8.2-3.8,10.3c-0.5,0.3-1,0.5-1.5,0.7c-2.2,0.7-4.5,0.6-6.6-0.4
		c-2.1-1-3.6-2.7-4.4-4.9c-1.3-3.9,0.2-8.2,3.8-10.3c0.5-0.3,1-0.5,1.5-0.7c0.4-0.1,0.7-0.2,1.1-0.3l12.9-69.2
		c0.2-1.1,0.9-1.9,1.9-2.3c1-0.3,2.1-0.2,2.9,0.5l40.4,32.4l14.9-66.4c-1.8-1-3.3-2.6-4-4.7c-1.3-3.9,0.2-8.2,3.8-10.3
		c0.5-0.3,1-0.5,1.5-0.7c2.2-0.7,4.5-0.6,6.6,0.4s3.6,2.8,4.4,4.9c1.3,3.9-0.2,8.2-3.8,10.3c-0.5,0.3-1,0.5-1.5,0.7
		c-0.4,0.1-0.7,0.2-1,0.3l-16,71.5c-0.2,1-0.9,1.9-1.9,2.2c-1,0.3-2.1,0.1-2.9-0.5l-40.2-32.3l-12,64.1
		C465.9,134.6,467.4,136.2,468.1,138.3z M614.9,338.4c-2.3,2.4-5.9,2.8-8.7,1c-0.3-0.2-0.7-0.5-1-0.8c-0.2-0.2-0.4-0.5-0.6-0.7
		l-54.2,15.7c-0.8,0.2-1.7,0-2.3-0.6c-0.6-0.6-0.9-1.5-0.7-2.3l8.7-40.6l-52.8,13.2c0,1.7-0.7,3.3-1.9,4.6c-2.3,2.4-5.9,2.8-8.7,1
		c-0.3-0.2-0.7-0.5-1-0.8c-1.3-1.2-2.1-3-2.1-4.8c-0.1-1.9,0.6-3.6,1.7-4.7c2.3-2.4,5.9-2.8,8.7-1c0.3,0.2,0.7,0.5,1,0.8
		c0.2,0.2,0.3,0.4,0.5,0.6l57-14.3c0.9-0.2,1.7,0,2.3,0.6c0.6,0.5,0.9,1.4,0.7,2.2l-8.6,40.4l50.2-14.5c0-1.6,0.7-3.2,1.9-4.5
		c2.3-2.4,5.9-2.8,8.7-1c0.3,0.2,0.7,0.5,1,0.8c1.3,1.2,2.1,3,2.1,4.8C616.9,335.3,616.2,337.1,614.9,338.4z M626.4,80.3
		c-1.4,2.3-4.1,3.2-6.7,2.3c-0.3-0.1-0.6-0.3-1-0.5c-1.3-0.8-2.2-2-2.5-3.4c-0.3-1.4-0.1-2.9,0.6-4.2c1.4-2.3,4.1-3.2,6.7-2.3
		c0.3,0.1,0.6,0.3,1,0.5c0.2,0.1,0.4,0.3,0.6,0.5L665,51c0.6-0.3,1.4-0.3,1.9,0c0.6,0.4,1,1,1,1.7l0.5,33.6l39.3-20
		c-0.3-1.3-0.1-2.7,0.7-4c1.4-2.3,4.1-3.2,6.7-2.3c0.3,0.1,0.6,0.3,1,0.5c1.3,0.8,2.2,2,2.5,3.4c0.4,1.4,0.1,2.9-0.6,4.2
		c-1.4,2.3-4.1,3.2-6.7,2.3c-0.3-0.1-0.6-0.3-1-0.5c-0.2-0.1-0.3-0.3-0.5-0.4L667.4,91c-0.6,0.3-1.3,0.3-1.9-0.1c-0.6-0.3-1-1-1-1.6
		L664,55.9l-36.9,20.5C627.4,77.7,627.1,79.1,626.4,80.3z M764.2,367.7c-0.5,0.3-1,0.5-1.5,0.6c-4,1.2-8.2-0.7-10.1-4.4
		c-0.2-0.6-0.4-1.1-0.6-1.7l-48.2-7c-1-0.1-1.9-0.8-2.3-1.7c-0.4-1-0.3-2,0.2-2.9l21.1-33.4l-39.9-6.7c-0.9,1.2-2,2.2-3.3,2.9
		c-0.5,0.3-1,0.5-1.5,0.6c-4,1.2-8.2-0.7-10.1-4.4c-1.1-2.1-1.2-4.4-0.5-6.6s2.2-4,4.3-5c0.5-0.3,1-0.5,1.5-0.6
		c4-1.2,8.2,0.7,10.1,4.4c0.4,0.9,0.7,1.8,0.8,2.8l43.9,7.4c0.9,0.1,1.8,0.8,2.2,1.7c0.4,0.9,0.3,2-0.2,2.8l-21,33.3l43.4,6.3
		c0.9-1.7,2.2-3,3.9-3.9c0.5-0.3,1-0.5,1.5-0.6c4-1.2,8.2,0.7,10.1,4.4C770.2,360.3,768.5,365.5,764.2,367.7z M790.7,222.1
		c-0.5,2.2-1.9,4.2-3.8,5.4c-3.5,2.2-8.1,1.7-10.9-1.3c-0.4-0.4-0.7-0.8-1-1.3c-0.2-0.3-0.3-0.7-0.5-1l-70.3,3.5
		c-1,0.1-2-0.4-2.6-1.3c-0.6-0.9-0.7-2-0.2-3l22.1-46.8l-68,1c-0.6,2-1.8,3.8-3.7,5c-3.5,2.2-8.1,1.7-10.9-1.3
		c-0.4-0.4-0.7-0.8-1-1.3c-1.3-2-1.7-4.3-1.2-6.5c0.5-2.2,1.8-4.1,3.7-5.3c3.5-2.2,8.1-1.7,10.9,1.3c0.4,0.4,0.7,0.8,1,1.3
		c0.2,0.3,0.4,0.6,0.5,0.9l73.3-1.1c1.1,0,2,0.5,2.6,1.4c0.6,0.9,0.6,2,0.2,2.9l-22.1,46.6l65.2-3.3c0.5-2,1.8-3.7,3.6-4.9
		c3.5-2.2,8.1-1.7,10.9,1.3c0.4,0.4,0.7,0.8,1,1.3C790.8,217.6,791.2,219.9,790.7,222.1z"/>
	<path fill="#FFFFFF" d="M759.3,356.4c-0.2,0-0.4,0.1-0.6,0.2c-0.9,0.4-1.5,1.2-1.8,2.1c0,0.1,0,0.1,0,0.2c0,0.3,0,0.5,0,0.8
		c0,0.2-0.1,0.3-0.1,0.5c0.1,0.5,0.2,0.9,0.4,1.3c0.8,1.7,3,2.5,4.8,1.6c1.7-0.9,2.5-3,1.5-4.9C762.7,356.7,761,355.9,759.3,356.4z"
		/>
	<path fill="#FFFFFF" d="M780.3,217.2c-1.6,1.1-2.1,3.3-1.1,5.1c0.1,0.1,0.2,0.3,0.4,0.5c1.2,1.2,3.1,1.4,4.6,0.5
		c0.8-0.6,1.4-1.4,1.6-2.3c0.2-0.9,0-1.9-0.5-2.7C784.2,216.6,781.9,216.1,780.3,217.2z"/>
	<path fill="#FFFFFF" d="M712,67.2c1.1,0.6,2.6,0.3,3.2-0.8c0.3-0.5,0.4-1.2,0.2-1.8c-0.1-0.6-0.5-1.1-1-1.4
		c-0.1-0.1-0.3-0.1-0.4-0.2c-1-0.4-2.2,0-2.8,1C710.6,65,710.9,66.5,712,67.2z"/>
	<path fill="#FFFFFF" d="M183.9,105.7c1.9-0.4,3.2-2.3,2.8-4.2c-0.3-1.8-1.8-3-3.5-3c-0.3,0-0.5,0.1-0.7,0.1
		c-0.9,0.2-1.8,0.7-2.3,1.5c0,0.1-0.1,0.1-0.1,0.2c0,0.3-0.1,0.5-0.2,0.8c0,0.1-0.1,0.3-0.2,0.4c-0.1,0.4-0.1,0.9,0,1.3
		C180.1,104.7,181.9,106.1,183.9,105.7z"/>
	<path fill="#FFFFFF" d="M645.2,172c-0.8,0.6-1.4,1.4-1.6,2.4c-0.2,0.9,0,1.9,0.5,2.7c0.1,0.1,0.2,0.3,0.4,0.5
		c1.2,1.2,3.1,1.4,4.6,0.5c1.7-1.1,2.2-3.3,1.1-5S646.8,170.9,645.2,172z"/>
	<path fill="#FFFFFF" d="M622.9,75.5c-0.1-0.1-0.3-0.1-0.4-0.2c-1-0.4-2.2,0-2.8,1c-0.3,0.5-0.4,1.2-0.3,1.7c0.1,0.6,0.5,1.1,1,1.4
		c1.1,0.7,2.6,0.3,3.2-0.8C624.4,77.6,624,76.2,622.9,75.5z"/>
</g>
</svg>
