<?xml version="1.0" encoding="utf-8"?>
<!-- Generator: Adobe Illustrator 18.0.0, SVG Export Plug-In . SVG Version: 6.00 Build 0)  -->
<!DOCTYPE svg PUBLIC "-//W3C//DTD SVG 1.1//EN" "http://www.w3.org/Graphics/SVG/1.1/DTD/svg11.dtd">
<svg version="1.1" id="Layer_1" xmlns="http://www.w3.org/2000/svg" xmlns:xlink="http://www.w3.org/1999/xlink" x="0px" y="0px"
	 viewBox="0 0 100 100" enable-background="new 0 0 100 100" xml:space="preserve">
<clipPath id="svgClip">
<path fill="#010101" d="M13.4,71.2c0.7,1,1.8,1.6,3,1.8c0.3,0,0.6,0,0.9,0c2.2-0.1,4-1.7,4.4-3.9c0.1-1.2-0.1-2.3-0.7-3.2l23.5-27.5
	l10.8,25.3c0.2,0.5,0.7,0.9,1.2,0.9c0.6,0.1,1.1-0.1,1.5-0.6l23.4-29.3c0.2,0.1,0.4,0.1,0.6,0.1c0.3,0,0.6,0,0.9,0
	c2.2-0.1,4-1.7,4.4-3.9c0.2-1.2-0.1-2.4-0.8-3.4c-0.7-1-1.8-1.6-3-1.8c-0.3,0-0.6,0-0.9,0c-2.2,0.1-4,1.7-4.4,3.9
	c-0.2,1.1,0.1,2.3,0.7,3.2L57.1,60.1L46.4,34.9c-0.2-0.5-0.7-0.8-1.2-0.9c-0.6-0.1-1.1,0.1-1.5,0.5L18.3,64.1
	c-0.1,0-0.4-0.1-0.5-0.1c-0.3,0-0.6,0-0.9,0c-2.2,0.1-4,1.7-4.4,3.9C12.4,69,12.7,70.2,13.4,71.2z M80.7,30.2c0.2-1,1.1-1.8,2.2-1.6
	c0.5,0,0.9,0.4,1.2,0.8c0.3,0.4,0.4,0.9,0.4,1.4c-0.1,0.9-0.9,1.6-1.8,1.6c-0.1,0-0.3,0-0.4,0C81.3,32.3,80.6,31.2,80.7,30.2z
	 M15.2,68.2c0.2-1,1.1-1.8,2.2-1.6s1.8,1.1,1.6,2.2c-0.1,0.9-0.9,1.6-1.8,1.6c-0.1,0-0.3,0-0.4,0c-0.5,0-0.9-0.4-1.2-0.8
	C15.2,69.2,15.1,68.7,15.2,68.2z"/>
<clipPath id="svgClip">	
</svg>


