<?xml version="1.0" encoding="utf-8"?>
<!-- Generator: Adobe Illustrator 18.0.0, SVG Export Plug-In . SVG Version: 6.00 Build 0)  -->
<!DOCTYPE svg PUBLIC "-//W3C//DTD SVG 1.1//EN" "http://www.w3.org/Graphics/SVG/1.1/DTD/svg11.dtd">
<svg version="1.1" id="Layer_1" xmlns="http://www.w3.org/2000/svg" xmlns:xlink="http://www.w3.org/1999/xlink" x="0px" y="0px"
	 viewBox="0 0 100 100" enable-background="new 0 0 100 100" xml:space="preserve">
<g>
	<path fill="#FFFFFF" d="M59.2,45.7H42.4c-4.5,0.5-7.4,1.6-8.3,3.4l0,8.4c0,0-0.1,2.2,1.2,3.5c0.7,0.8,1.8,1.1,3.2,1.1h24.6
		c1.4,0,2.4-0.4,3.2-1.1c1.3-1.3,1.2-3.5,1.2-3.6l0-0.1V49C66.6,47.3,63.7,46.1,59.2,45.7z"/>
	<path fill="#FFFFFF" d="M77.6,38.5c-4,0-7.3,3.3-7.3,7.3v2.4c0,0,0,0,0,0l0.1,0.2v8.9c0,0.5,0,3.5-2,5.6c-1.3,1.4-3,2.1-5.3,2.1h0
		H38.5c-2.2,0-4-0.7-5.3-2.1c-2-2.1-2-5.2-2-5.6v-8.9l0.1-0.2v-2.5c0-4-3.3-7.3-7.3-7.3c-4,0-7.3,3.3-7.3,7.3v30.8
		c0,4,3.3,7.3,7.3,7.3c4,0,7.3-3.3,7.3-7.3v-2.8l2.2,1.2c2.3,1.3,5,2,7.7,2h19.2c2.7,0,5.4-0.7,7.7-2l2.2-1.2v2.8
		c0,4,3.3,7.3,7.3,7.3c4,0,7.3-3.3,7.3-7.3V45.8C84.9,41.8,81.6,38.5,77.6,38.5z"/>
	<path fill="#FFFFFF" d="M-1.7-2.7v105.4h104.3V-2.7H-1.7z M87.7,76.6c0,5.6-4.6,10.2-10.2,10.2c-5,0-9.1-3.6-10-8.3
		c-2.3,0.9-4.7,1.4-7.2,1.4H41.2c-2.5,0-4.9-0.5-7.2-1.4c-0.9,4.7-5.1,8.3-10,8.3c-5.6,0-10.2-4.6-10.2-10.2V45.8
		c0-5.2,4-9.6,9.1-10.1C23.2,23.1,31.8,13,42.3,13h17c10.5,0,19,10.1,19.4,22.7c5.1,0.6,9.1,4.9,9.1,10.1V76.6z"/>
	<path fill="#FFFFFF" d="M34.1,44.2c2.2-0.9,4.7-1.4,7.1-1.4h0.9c1.5-0.2,3.2-0.2,5-0.2c1.2,0,2.4,0,3.6,0.1
		c1.2-0.1,2.5-0.1,3.6-0.1c1.8,0,3.5,0.1,5,0.2h0.9c2.4,0,4.9,0.5,7.1,1.4c0.7-4.3,4-7.7,8.3-8.4c-0.3-11-7.6-19.9-16.5-19.9h-17
		c-8.9,0-16.2,8.9-16.5,19.9C30.1,36.5,33.4,39.9,34.1,44.2z"/>
</g>
</svg>
